<svg xmlns="http://www.w3.org/2000/svg" width="20.861" height="20.861" viewBox="0 0 20.861 20.861">
  <g id="Available_day-white" data-name="Available day" transform="translate(-4 -4)">
    <path id="Path_244" data-name="Path 244" d="M12,47h1.49v1.118H12Z" transform="translate(-5.02 -26.982)" fill="#fff"/>
    <path id="Path_245" data-name="Path 245" d="M42.1,38a4.1,4.1,0,1,0,4.1,4.1A4.1,4.1,0,0,0,42.1,38Zm2.679,3.063-3.161,3.161a.373.373,0,0,1-.527,0l-1.58-1.581a.372.372,0,1,1,.527-.527l1.317,1.317,2.9-2.9a.372.372,0,1,1,.527.527Z" transform="translate(-21.335 -21.335)" fill="#fff"/>
    <path id="Path_246" data-name="Path 246" d="M24,29h1.49v1.118H24Z" transform="translate(-12.55 -15.687)" fill="#fff"/>
    <path id="Path_247" data-name="Path 247" d="M36,29h1.49v1.118H36Z" transform="translate(-20.08 -15.687)" fill="#fff"/>
    <path id="Path_248" data-name="Path 248" d="M12,38h1.49v1.118H12Z" transform="translate(-5.02 -21.335)" fill="#fff"/>
    <path id="Path_249" data-name="Path 249" d="M24,38h1.49v1.118H24Z" transform="translate(-12.55 -21.335)" fill="#fff"/>
    <path id="Path_250" data-name="Path 250" d="M12,29h1.49v1.118H12Z" transform="translate(-5.02 -15.687)" fill="#fff"/>
    <path id="Path_251" data-name="Path 251" d="M14.745,7.725a.747.747,0,0,0,.745-.745V4.745a.745.745,0,0,0-1.49,0V6.98a.747.747,0,0,0,.745.745Z" transform="translate(-6.275)" fill="#fff"/>
    <path id="Path_252" data-name="Path 252" d="M30.745,7.725a.747.747,0,0,0,.745-.745V4.745a.745.745,0,1,0-1.49,0V6.98A.747.747,0,0,0,30.745,7.725Z" transform="translate(-16.315)" fill="#fff"/>
    <path id="Path_253" data-name="Path 253" d="M46.745,7.725a.747.747,0,0,0,.745-.745V4.745a.745.745,0,0,0-1.49,0V6.98A.747.747,0,0,0,46.745,7.725Z" transform="translate(-26.355)" fill="#fff"/>
    <path id="Path_254" data-name="Path 254" d="M48,29h1.49v1.118H48Z" transform="translate(-27.61 -15.687)" fill="#fff"/>
    <path id="Path_255" data-name="Path 255" d="M23.743,10H21.881v.745a1.49,1.49,0,1,1-2.98,0V10H15.92v.745a1.49,1.49,0,0,1-2.98,0V10H9.96v.745a1.49,1.49,0,0,1-2.98,0V10H5.118A1.121,1.121,0,0,0,4,11.118v2.608H24.861V11.118A1.121,1.121,0,0,0,23.743,10Z" transform="translate(0 -3.765)" fill="#fff"/>
    <path id="Path_256" data-name="Path 256" d="M24,47h1.49v1.118H24Z" transform="translate(-12.55 -26.982)" fill="#fff"/>
    <path id="Path_257" data-name="Path 257" d="M4,22V33.548a1.121,1.121,0,0,0,1.118,1.118H16.689a4.837,4.837,0,0,1,8.172-5.178V22ZM9.215,32.43a.745.745,0,0,1-.745.745H6.98a.745.745,0,0,1-.745-.745V31.313a.745.745,0,0,1,.745-.745H8.47a.745.745,0,0,1,.745.745Zm0-3.353a.745.745,0,0,1-.745.745H6.98a.745.745,0,0,1-.745-.745V27.96a.745.745,0,0,1,.745-.745H8.47a.745.745,0,0,1,.745.745Zm0-3.353a.745.745,0,0,1-.745.745H6.98a.745.745,0,0,1-.745-.745V24.608a.745.745,0,0,1,.745-.745H8.47a.745.745,0,0,1,.745.745Zm4.47,6.705a.745.745,0,0,1-.745.745H11.45a.745.745,0,0,1-.745-.745V31.313a.745.745,0,0,1,.745-.745h1.49a.745.745,0,0,1,.745.745Zm0-3.353a.745.745,0,0,1-.745.745H11.45a.745.745,0,0,1-.745-.745V27.96a.745.745,0,0,1,.745-.745h1.49a.745.745,0,0,1,.745.745Zm0-3.353a.745.745,0,0,1-.745.745H11.45a.745.745,0,0,1-.745-.745V24.608a.745.745,0,0,1,.745-.745h1.49a.745.745,0,0,1,.745.745ZM17.41,27.96H15.92v1.118a.373.373,0,0,1,0,.745.745.745,0,0,1-.745-.745V27.96a.745.745,0,0,1,.745-.745h1.49a.373.373,0,1,1,0,.745Zm.745-2.235a.745.745,0,0,1-.745.745H15.92a.745.745,0,0,1-.745-.745V24.608a.745.745,0,0,1,.745-.745h1.49a.745.745,0,0,1,.745.745Zm4.47,0a.745.745,0,0,1-.745.745H20.39a.745.745,0,0,1-.745-.745V24.608a.745.745,0,0,1,.745-.745h1.49a.745.745,0,0,1,.745.745Z" transform="translate(0 -11.295)" fill="#fff"/>
  </g>
</svg>
