<svg id="Check_in_and_out" data-name="Check in and out" xmlns="http://www.w3.org/2000/svg" width="20" height="20" viewBox="0 0 20 20">
  <path id="Path_61" data-name="Path 61" d="M91.064,86.1a.573.573,0,0,1,.573-.573h1.206a6.779,6.779,0,0,0-6.171-6.171v1.206a.573.573,0,0,1-1.145,0V79.355a6.779,6.779,0,0,0-6.171,6.171h1.206a.573.573,0,0,1,0,1.145H79.355a6.779,6.779,0,0,0,6.171,6.171V91.636a.573.573,0,0,1,1.145,0v1.206a6.779,6.779,0,0,0,6.171-6.171H91.636A.573.573,0,0,1,91.064,86.1Zm-1.507-2.735L86.509,86.5a.573.573,0,0,1-.787.032l-2.275-1.989a.573.573,0,0,1,.754-.862l1.866,1.632,2.669-2.745a.573.573,0,1,1,.821.8Z" transform="translate(-76.099 -76.099)" fill="#333"/>
  <path id="Path_62" data-name="Path 62" d="M10,0A10,10,0,1,0,20,10,10.011,10.011,0,0,0,10,0Zm0,18.1A8.1,8.1,0,1,1,18.1,10,8.106,8.106,0,0,1,10,18.1Z" fill="#333"/>
</svg>