<svg xmlns="http://www.w3.org/2000/svg" width="17.99" height="24.162" viewBox="0 0 17.99 24.162">
  <g id="Leave_requset_" data-name="Leave requset " transform="translate(-51.988 -0.001)">
    <g id="Group_339" data-name="Group 339" transform="translate(51.988 0.001)">
      <g id="Group_338" data-name="Group 338" transform="translate(0 0)">
        <path id="Path_261" data-name="Path 261" d="M143.649,1.832h-1.768a.5.5,0,0,1-.465-.372A1.8,1.8,0,0,0,139.586,0a1.83,1.83,0,0,0-1.83,1.489.465.465,0,0,1-.465.341h-1.706v3.1h8.064Z" transform="translate(-130.622 -0.001)" fill="#333"/>
        <path id="Path_262" data-name="Path 262" d="M69.977,81.18V63.408a1.272,1.272,0,0,0-1.268-1.275q-.048,0-.1,0H65.945v1.582c0,.248-.155.589-.4.589h-9.15c-.248,0-.372-.341-.372-.589V62.136H53.353a1.272,1.272,0,0,0-1.361,1.175q0,.048,0,.1V81.18a1.4,1.4,0,0,0,1.364,1.427h15.26a1.4,1.4,0,0,0,1.365-1.426ZM58.471,77.086,56.051,79.35a.434.434,0,0,1-.31.155.5.5,0,0,1-.341-.155l-1.272-1.3a.472.472,0,0,1,.682-.651l.93.992L57.85,76.4a.465.465,0,0,1,.62.682Zm0-4.963h0l-2.419,2.264a.434.434,0,0,1-.31.155.5.5,0,0,1-.341-.155l-1.272-1.3a.472.472,0,0,1,.682-.651l.93.992,2.109-1.985a.465.465,0,0,1,.62.682Zm0-4.963-2.419,2.264a.434.434,0,0,1-.31.155.5.5,0,0,1-.341-.155l-1.272-1.3a.472.472,0,0,1,.682-.651l.93.992,2.109-1.985a.465.465,0,0,1,.62.682ZM67.5,78.884H60.362a.465.465,0,0,1,0-.931H67.5a.465.465,0,0,1,0,.931Zm0-4.963H60.362a.465.465,0,0,1,0-.931H67.5a.465.465,0,0,1,0,.931Zm0-4.963H60.362a.465.465,0,0,1,0-.93H67.5a.465.465,0,0,1,0,.93Z" transform="translate(-51.988 -58.444)" fill="#333"/>
      </g>
    </g>
  </g>
</svg>