<svg xmlns="http://www.w3.org/2000/svg" width="11.858" height="18.424" viewBox="0 0 11.858 18.424">
  <path id="Overtime_day" data-name="Overtime day" d="M42.558,8.905c1.928-.854,3.3-3.648,3.421-6.889h.785a.464.464,0,0,0,.464-.464V.464A.464.464,0,0,0,46.764,0H35.834a.464.464,0,0,0-.464.464V1.552a.464.464,0,0,0,.464.464h.785c.121,3.24,1.493,6.035,3.421,6.889a.33.33,0,0,1,0,.614c-1.928.854-3.3,3.648-3.421,6.889h-.785a.464.464,0,0,0-.464.464V17.96a.464.464,0,0,0,.464.464h10.93a.464.464,0,0,0,.464-.464V16.872a.464.464,0,0,0-.464-.464h-.785c-.121-3.24-1.493-6.035-3.421-6.889a.33.33,0,0,1,0-.614ZM40.29,7.615a4.346,4.346,0,0,1-.973-.912,8.52,8.52,0,0,0,1.978.249,8.6,8.6,0,0,0,2.039-.263,5.581,5.581,0,0,1-1.028.954,1.792,1.792,0,0,1-.967.249A2.078,2.078,0,0,1,40.29,7.615ZM37.965,16.06q0-.072,0-.156a8.594,8.594,0,0,1,.12-.975.045.045,0,0,1,.032-.035l2.911-.915a.894.894,0,0,1,.536,0l2.9.912a.046.046,0,0,1,.032.037c.021.141.053.36.082.6.022.18.034.369.041.532H37.965Z" transform="translate(-35.37)" fill="#333"/>
</svg>
