<svg xmlns="http://www.w3.org/2000/svg" width="21" height="17.287" viewBox="0 0 21 17.287">
  <g id="Public_Holoday" data-name="Public Holoday" transform="translate(0 -53.164)">
    <g id="Group_333" data-name="Group 333" transform="translate(4.758 53.164)">
      <g id="Group_332" data-name="Group 332" transform="translate(0 0)">
        <path id="Path_258" data-name="Path 258" d="M130.8,56.269V53.85a.686.686,0,0,0-.686-.686h-6.219a.686.686,0,0,0-.686.686v2.418h-1.946V70.451h11.483V56.269Zm-1.372-.005H124.58V54.536h4.846v1.727Z" transform="translate(-121.262 -53.164)" fill="#333"/>
      </g>
    </g>
    <g id="Group_335" data-name="Group 335" transform="translate(0 56.269)">
      <g id="Group_334" data-name="Group 334">
        <path id="Path_259" data-name="Path 259" d="M2.333,126.02A2.335,2.335,0,0,0,0,128.353v9.517A2.335,2.335,0,0,0,2.333,140.2H3.795V126.02Z" transform="translate(0 -126.02)" fill="#333"/>
      </g>
    </g>
    <g id="Group_337" data-name="Group 337" transform="translate(17.205 56.269)">
      <g id="Group_336" data-name="Group 336">
        <path id="Path_260" data-name="Path 260" d="M424.409,126.02h-1.462V140.2h1.462a2.335,2.335,0,0,0,2.333-2.333v-9.517A2.335,2.335,0,0,0,424.409,126.02Z" transform="translate(-422.947 -126.02)" fill="#333"/>
      </g>
    </g>
  </g>
</svg>
