<svg xmlns="http://www.w3.org/2000/svg" width="18" height="18" viewBox="0 0 18 18"><defs><style>.a{fill:#2a2f39;}</style></defs><g transform="translate(0 0)"><g transform="translate(7.417)"><path class="a" d="M925.454,317.835H919.6a1.907,1.907,0,0,1-1.9-1.9v-6.765a15.454,15.454,0,0,1,1.091-5.716l1.273-3.213a.635.635,0,0,1,.789-.369l1.652.546a2.428,2.428,0,0,1,1.589,2.826l0,.01-.557,2.44h2.692a2.041,2.041,0,0,1,1.506.672,2.139,2.139,0,0,1,.54,1.641l-.767,7.935A2.069,2.069,0,0,1,925.454,317.835Zm-4.435-16.575-1.052,2.656a14.189,14.189,0,0,0-1,5.249v6.765a.636.636,0,0,0,.635.635h5.855a.8.8,0,0,0,.783-.751l.767-7.935a.866.866,0,0,0-.217-.665.759.759,0,0,0-.566-.256h-3.488a.635.635,0,0,1-.619-.776l.733-3.211a1.175,1.175,0,0,0-.745-1.354Z" transform="translate(-917.695 -299.834)"/></g><g transform="translate(0 5.854)"><path class="a" d="M723.4,468.738h-2.412a1.907,1.907,0,0,1-1.9-1.9V458.5a1.907,1.907,0,0,1,1.9-1.9H723.4a1.907,1.907,0,0,1,1.9,1.9v8.337A1.907,1.907,0,0,1,723.4,468.738Zm-2.412-10.877a.636.636,0,0,0-.635.635v8.337a.636.636,0,0,0,.635.635H723.4a.636.636,0,0,0,.635-.635V458.5a.636.636,0,0,0-.635-.635Z" transform="translate(-719.08 -456.592)"/></g></g></svg>