<svg xmlns="http://www.w3.org/2000/svg" width="34" height="34.001" viewBox="0 0 34 34.001"><defs><style>.a{fill:#ffd93b;}.b{fill:#3e4347;}</style></defs><g transform="translate(-719.08 -299.835)"><g transform="translate(733.09 299.835)"><path class="a" d="M937.661,315.263l-1.449,14.988a3.908,3.908,0,0,1-3.865,3.586H921.288a3.6,3.6,0,0,1-3.6-3.6V317.46a29.19,29.19,0,0,1,2.061-10.8l2.405-6.069a1.2,1.2,0,0,1,1.491-.7l3.12,1.031a4.586,4.586,0,0,1,3,5.339.122.122,0,0,1,0,.018l-1.053,4.609H933.8a3.856,3.856,0,0,1,2.846,1.269A4.039,4.039,0,0,1,937.661,315.263Z" transform="translate(-917.69 -299.835)"/></g><g transform="translate(719.08 310.893)"><rect class="b" width="11.751" height="22.943" rx="5.876" transform="translate(0)"/></g></g></svg>