<?xml version="1.0" encoding="utf-8"?>
<!-- Generator: Adobe Illustrator 19.0.0, SVG Export Plug-In . SVG Version: 6.00 Build 0)  -->
<svg version="1.1" id="Layer_1" xmlns="http://www.w3.org/2000/svg" xmlns:xlink="http://www.w3.org/1999/xlink" x="0px" y="0px"
	 viewBox="0 0 768 103.2" style="enable-background:new 0 0 768 103.2;" xml:space="preserve">
<style type="text/css">
	.st0{fill:#FFFFFF;}
	.st1{fill:#D32F2F;}
</style>
<g id="XMLID_1_">
	<path id="XMLID_104_" class="st0" d="M210.3,12.8c-9-8.4-22.7-12.6-41.3-12.6c-18.6,0-32.4,4.1-41.4,12.3
		c-9,8.3-13.4,20.8-13.4,37.7c0,17.9,4.4,31.1,13.2,39.5c8.7,8.5,22.6,12.7,41.6,12.7c18.5,0,32.2-4.2,41.2-12.7
		c9-8.4,13.4-21.2,13.4-38.5C223.6,34,219.2,21.2,210.3,12.8z M191.2,77c-2.4,2.9-5.4,5-9,6.3c-3.6,1.4-8,2.1-13.1,2.1
		c-10.3,0-17.8-2.9-22.5-8.5c-4.7-5.6-7.1-14.4-7.1-26.5c0-11.1,2.4-19.5,7.2-25.2c5.1-5.5,12.6-8.3,22.4-8.3
		c10,0,17.5,2.8,22.4,8.4c4.8,5.6,7.2,14.2,7.2,25.8C198.6,62.8,196.1,71.5,191.2,77z"/>
	<path id="XMLID_101_" class="st0" d="M329.9,0.4h-79.2c-5.5,0-10,4.5-10,10v0c0,5.5,4.5,10,10,10h29.6l0,72.4c0,5.5,4.5,10,10,10
		s10-4.5,10-10l0-72.4h29.6c5.5,0,10-4.5,10-10v0C339.8,4.9,335.4,0.4,329.9,0.4z"/>
	<g id="XMLID_78_">
		<path id="XMLID_91_" class="st1" d="M578.3,61.6h70.6c5.5,0,10-4.5,10-10s-4.5-10-10-10h-70.6c-5.5,0-10,4.5-10,10
			S572.8,61.6,578.3,61.6z"/>
		<path id="XMLID_98_" class="st1" d="M578.3,103.1h70.6c5.5,0,10-4.5,10-10s-4.5-10-10-10h-70.6c-5.5,0-10,4.5-10,10
			S572.8,103.1,578.3,103.1z"/>
		<path id="XMLID_99_" class="st1" d="M648.9,0.3h-70.6c-5.5,0-10,4.5-10,10s4.5,10,10,10h70.6c5.5,0,10-4.5,10-10
			S654.4,0.3,648.9,0.3z"/>
	</g>
	<path id="XMLID_90_" class="st0" d="M444.4,88.7l-35-79.7c-0.3-0.7-0.7-1.3-1.2-1.9c-3-4.3-8-7.2-13.7-7.2c-5.8,0-10.9,3-13.9,7.4
		c-0.4,0.5-0.7,1-1,1.6l-35,79.7c-2.4,4.9-0.4,10.9,4.6,13.3c4.9,2.4,10.9,0.4,13.3-4.6l32-72.8l32,72.8c2.4,4.9,8.4,7,13.3,4.6h0
		C444.8,99.6,446.9,93.7,444.4,88.7z"/>
	<path id="XMLID_86_" class="st0" d="M768,30.2c0-0.4,0-0.8-0.1-1.2c-0.1-0.8-0.1-1.6-0.2-2.4c0-0.3-0.1-0.7-0.1-1
		c0-0.1,0-0.2,0-0.4c-0.4-3.1-1-5.9-1.9-8.3c-4.5-12.5-14.8-15.8-22.2-16.4c-2.5-0.2-4.7-0.1-6.2,0h-15.8h-35.2c-5.5,0-10,4.5-10,10
		v0.2v0.1v81c0,5.5,4.5,10,10,10c5.5,0,10-4.5,10-10v-28h25.2h1.7h4.1l22.6,34c3.3,4.4,9.6,5.2,14,1.9v0c4.4-3.3,5.2-9.6,1.9-14
		l-15.4-23.7c4.1-1.5,8.3-4,11.5-8.3c2-2.6,3.6-5.8,4.7-9.8h0h0.1c0.2-0.7,0.3-1.5,0.5-2.2c0.1-0.3,0.1-0.7,0.2-1
		c0.1-0.3,0.1-0.6,0.2-1c0.1-0.4,0.1-0.9,0.2-1.3c0.1-0.5,0.1-1.1,0.2-1.7c0.1-0.5,0.1-1,0.1-1.5c0-0.4,0-0.8,0.1-1.2
		c0-0.6,0-1.2,0-1.9C768,31.5,768,30.8,768,30.2z M696.3,20.5h19.2h6.1h11.8l0,0l0,0h3.8h0.9c4.3,0.5,10.1,2.9,10.1,11.7
		c0,9.4-7.5,11.3-12,11.7h-12.9h-1.7h-25.2V20.5z"/>
	<g id="XMLID_81_">
		<path id="XMLID_82_" class="st0" d="M88.1,82.6H52.5c-7.8,0-14.9-2.9-20.3-7.7C26,69.3,22.1,61.2,22.1,52.1v-1.5
			c0-8.9,3.8-16.9,9.9-22.4c5.2-4.8,12.1-7.8,19.8-8h36.4c0.1,0,0.2,0,0.3,0c2.6-0.1,5-1.2,6.7-2.9c1.8-1.8,2.9-4.3,2.9-7
			c0-3.7-2-6.9-5-8.6c-0.1-0.1-0.2-0.1-0.3-0.2c-1.1-0.8-2.4-1.2-3.6-1.2h-1.2H55c-4.9,0-9.1,0.2-12.5,0.4c-3.4,0.3-6.5,0.9-9.4,1.7
			C28,3.7,23,6.1,18.2,9.6c-4.1,2.9-7.4,6.4-10.2,10.6c-1.3,1.9-2.4,4-3.4,6.3C3.1,30,1.9,33.8,1.2,37.9C0.4,42.1,0,46.5,0,51.3
			c0,0.3,0,0.6,0,0.9c0.1,9.1,1.6,17.1,4.6,23.9c1,2.3,2.2,4.4,3.5,6.4c2.7,4.1,6,7.6,10,10.4c4.8,3.5,9.8,5.9,14.9,7.2
			c2.9,0.8,6,1.3,9.4,1.7c3.4,0.3,7.6,0.4,12.5,0.4c0,0,22.6,0,34.3,0c0.5,0,0.9-0.1,1.4-0.2c1.7-0.5,3.2-1.3,4.5-2.6
			c1.8-1.8,2.9-4.3,2.9-7.1C98.1,87,93.6,82.6,88.1,82.6z"/>
	</g>
	<path id="XMLID_80_" class="st0" d="M551.2,6.5c-0.2-0.6-0.6-1.2-0.9-1.7c-0.4-0.5-0.8-1-1.2-1.5c-1.8-1.8-4.3-2.9-7.1-2.9h-21.6
		c0,0,0,0-2.6,0.1c-1.6,0-4.4,0.1-8.8,0.2h-0.1c0,0,0,0,0,0c-0.5,0-1,0-1.5,0.1c0,0-0.1,0-0.1,0c-0.1,0-0.3,0-0.4,0
		c-0.9,0-1.8,0.1-2.8,0.2c-0.6,0.1-1.2,0.1-1.7,0.2c-1.7,0.2-3.4,0.4-5.2,0.7c-0.6,0.1-1.1,0.2-1.7,0.3c-0.1,0-0.2,0.1-0.3,0.1
		c-0.6,0.1-1.1,0.2-1.6,0.3c-0.1,0-0.1,0-0.2,0.1c-12.2,3.6-25.2,12.1-29.1,31.4c-0.5,2.4-0.8,5-1,7.7c-0.1,1.3-0.1,2.7-0.1,4.1
		c0,0.2,0,0.4,0,0.6V54c0,0.1,0,0.1,0,0.2c0,0.1,0,0.1,0,0.2v38.9c0,5.5,4.5,10,10,10c5.5,0,10-4.5,10-10V64.1h38.4
		c5.5,0,10-4.5,10-10c0-2.8-1.1-5.2-2.9-7c-1.8-1.8-4.3-2.9-7-2.9h-38.4c0,0,0,0,0-0.1c0,0,0-0.1,0-0.1v-2.5c0-0.2,0-0.3,0-0.5
		c0-0.1,0-0.2,0-0.2c0.5-5.8,4-17.1,21.9-19.9c2-0.2,4.3-0.4,6.9-0.5H542c2.8,0,5.2-1.1,7-2.9c0.2-0.2,0.3-0.4,0.5-0.5l0,0
		c0.2-0.2,0.4-0.4,0.5-0.7c0.2-0.2,0.3-0.5,0.5-0.7c0.2-0.2,0.3-0.5,0.4-0.8c0.1-0.2,0.2-0.5,0.3-0.7c0.1-0.2,0.2-0.5,0.3-0.7
		c0.1-0.2,0.1-0.4,0.1-0.6c0.1-0.4,0.2-0.8,0.2-1.2c0-0.3,0.1-0.7,0.1-1C552,9,551.7,7.7,551.2,6.5z"/>
</g>
</svg>
