<svg xmlns="http://www.w3.org/2000/svg" width="116" height="18" viewBox="0 0 116 18"><defs><style>.a{fill:#f44;}.b{fill:#fff;}</style></defs><g transform="translate(-6224.998 505.006)"><g transform="translate(6245.7 -505)"><path class="a" d="M598.067,1019.34h-.081a1.4,1.4,0,1,0,0,2.8.678.678,0,0,0,.08,0v1.01h-.08a2.413,2.413,0,0,1-2.35-1.876,5.319,5.319,0,0,1-2.961,1.756s-.039.009-.1.021a8.719,8.719,0,0,0,.89.6l.193.109c.064.035.128.073.2.109.042.022.083.043.128.064.094.047.193.094.289.14.112.052.227.1.344.15l.14.057c.064.026.128.051.193.074a8.814,8.814,0,0,0,1.046.321c.216.052.439.1.671.137a8.872,8.872,0,0,0,1.4.111h.07a2.89,2.89,0,0,0,2.614-2.891A2.688,2.688,0,0,0,598.067,1019.34Z" transform="translate(-589.074 -1006.933)"/><path class="b" d="M561.488,861.7a5.9,5.9,0,0,1,1.206,3.577c0,3.276-2.02,5.477-5.325,5.5v-1c2.751-.02,4.316-1.772,4.316-4.5a5,5,0,0,0-4.583-4.95c-.133-.006-.266-.01-.4-.01a9,9,0,0,0-8.993,8.993c0,.129,0,.257.01.385H549.2v1.077h-1.369a8.8,8.8,0,0,0,.407,1.571l1.1-.514.459.979-1.14.531a7.164,7.164,0,0,0,.382.687,5.7,5.7,0,0,0,3.832-1.163l.136-.1c-.039.073-1.409,2.7-5.3,2.066,1.051.758,4.873,2.26,6.855-1.952a2.415,2.415,0,0,1,2.055-1.156h.08a3.7,3.7,0,0,1,3.661,3.228,3.184,3.184,0,0,1-.984,2.933,7.964,7.964,0,0,0,2.8-1.443c.206-.16.406-.327.6-.5a8.981,8.981,0,0,0-1.293-14.229Zm-7.686,5.476a1.028,1.028,0,1,1,.738-.295A1.028,1.028,0,0,1,553.8,867.173Z" transform="translate(-547.709 -860.315)"/></g><g transform="translate(6266.824 -505.006)"><path class="b" d="M832.015,861.844v14.94a1.523,1.523,0,0,1-1.532,1.511h-.939a1.836,1.836,0,0,1-1.477-.862l-6.783-9.6v8.929a1.533,1.533,0,0,1-1.532,1.532h-.807a1.535,1.535,0,0,1-1.534-1.532V861.754l0-.033,0-.031a1.531,1.531,0,0,1,1.5-1.384h.964a1.748,1.748,0,0,1,1.47.913l6.786,9.58v-8.956a1.534,1.534,0,0,1,1.534-1.534h.806a1.534,1.534,0,0,1,1.533,1.534Z" transform="translate(-817.412 -860.306)"/></g><g transform="translate(6284.559 -505.002)"><path class="a" d="M1052.736,860.312a8.993,8.993,0,1,0,8.98,9A8.993,8.993,0,0,0,1052.736,860.312Zm0,14.2a5.21,5.21,0,1,1,5.2-5.2A5.21,5.21,0,0,1,1052.736,874.514Z" transform="translate(-1043.73 -860.312)"/></g><g transform="translate(6305.678 -505.006)"><path class="b" d="M1327.65,877.607a1.484,1.484,0,0,1-1.28.687h-1.212a1.775,1.775,0,0,1-1.372-.631c-.025-.031-.215-.249-.52-.6l-1.054-1.213-2.728-3.152-.33-.38-1.751,2.031-.09.1v0l0,0-.025.031v2.275a1.519,1.519,0,0,1-.044.361.717.717,0,0,1-.027.1c-.013.046-.031.088-.048.134a1.5,1.5,0,0,1-1.39.94h-.048l-.892,0h-.037l-.035,0c-.042-.006-.085-.012-.125-.019h-.01a1.527,1.527,0,0,1-1.069-.812c-.019-.037-.035-.073-.052-.111l-.019-.021-.039-.136-.019-.064V877.1c-.014-.058-.023-.119-.033-.179l0-.042v-.017c0-.035,0-.071,0-.105V861.752l0-.031v-.005l0-.037c.008-.06.019-.117.031-.175v-.165l.079-.081c.014-.033.031-.071.052-.113a1.416,1.416,0,0,1,.23-.332,1.267,1.267,0,0,1,.092-.092,1.484,1.484,0,0,1,.6-.348,1.452,1.452,0,0,1,.292-.059h.039c.037,0,.071,0,.106,0h.812a1.558,1.558,0,0,1,1.417.911,1.006,1.006,0,0,1,.064.18l.029.107v.021a1.5,1.5,0,0,1,.033.313v6.607l1.436-1.657.791-.916c.75-.866,1.641-1.9,2.7-3.119.421-.486.783-.9,1.056-1.22.3-.351.493-.568.524-.606a1.768,1.768,0,0,1,1.366-.626h1.211a1.484,1.484,0,0,1,1.28.687,1.326,1.326,0,0,1,.058,1.3l-.021.04-.008.013-.01.013a3.6,3.6,0,0,1-.326.45l-.008.012-.006.006-.006.008-.114.132-.313.363-.231.267-.169.193-.177.206c-.121.144-.252.3-.385.45l-1.057,1.227-.651.756-.213.244-.105.123-.205.238-1.06,1.227-.058.064c-.027.029-.052.058-.08.092l-.064.071c-.193.221-.321.376-.382.439l-.021.027-.012.015-.013.015-.265.307.265.305.013.015.012.015.021.027c.058.064.193.219.38.438l.069.078c.023.029.048.058.075.087l.058.064,1.06,1.227.206.24.105.121.213.245.651.754c.365.422.726.841,1.056,1.224.136.155.267.307.385.45l.179.208.169.193.231.267.315.365.111.128.006.008.006.008.008.01a3.824,3.824,0,0,1,.326.45l.01.013.006.015.021.04,0,0v0a1.318,1.318,0,0,1-.051,1.3Z" transform="translate(-1313.39 -860.307)"/></g><g transform="translate(6323.282 -505.002)"><path class="b" d="M1555.445,877.63a1.42,1.42,0,0,1-1.2.666H1553.1a1.577,1.577,0,0,1-1.324-.762l-.011-.021-.012-.023-4.972-10.231-4.927,10.177a1.541,1.541,0,0,1-1.388.86h-1.146a1.413,1.413,0,0,1-1.211-.676,1.386,1.386,0,0,1-.023-1.344l6.7-15.22.019-.042.025-.039.021-.033v0l0,0c.394-.587,1.912-.624,1.927-.624s1.538.037,1.927.626l.01.013.008.013.039.064.017.029.013.031,6.707,15.245a1.336,1.336,0,0,1-.055,1.3Z" transform="translate(-1537.926 -860.312)"/></g><path class="b" d="M301.064,869.88a7.323,7.323,0,0,1-2.272,5.855,8.552,8.552,0,0,1-6.508,2.569,8.8,8.8,0,0,1-8.772-8.8,8.7,8.7,0,0,1,.053-1.1,8.96,8.96,0,0,1,8.778-8.075,8.693,8.693,0,0,1,8.631,5.613h0c.057.214.042.128.068.257a.614.614,0,0,1-.438.777,5.06,5.06,0,0,1-1.526.18c-.148,0-.308,0-.48-.013a4.344,4.344,0,0,1-.75-.09l-.033-.007-.266-.058-.128-.03a.2.2,0,0,1-.019-.035l0-.007-.007-.015a4.991,4.991,0,0,0-4.813-2.878,5.267,5.267,0,0,0,0,10.529,5.2,5.2,0,0,0,4.432-2.45h-4.628a1.465,1.465,0,0,1-1.459-1.465v-.771a1.453,1.453,0,0,1,1.364-1.461h7.323a1.4,1.4,0,0,1,1.357.948,1.663,1.663,0,0,1,.1.531Z" transform="translate(5941.487 -1365.319)"/></g></svg>