<svg xmlns="http://www.w3.org/2000/svg" width="179.788" height="27.999" viewBox="0 0 179.788 27.999">
  <g id="logo_gonoka_white_28" transform="translate(-6224.998 505.006)">
    <g id="Group_3728" data-name="Group 3728" transform="translate(6289.782 -505.006)">
      <path id="Path_7169" data-name="Path 7169" d="M840.146,862.7v23.239a2.37,2.37,0,0,1-2.385,2.35H836.3a2.858,2.858,0,0,1-2.3-1.341L823.441,872.01V885.9a2.386,2.386,0,0,1-2.385,2.383H819.8a2.389,2.389,0,0,1-2.388-2.383V862.558l.006-.051.006-.048a2.382,2.382,0,0,1,2.34-2.153h1.5a2.723,2.723,0,0,1,2.289,1.421l10.564,14.9V862.7a2.388,2.388,0,0,1,2.388-2.386h1.255a2.387,2.387,0,0,1,2.386,2.386Z" transform="translate(-817.412 -860.306)" fill="#fff"/>
    </g>
    <g id="Group_3729" data-name="Group 3729" transform="translate(6317.235 -505)">
      <path id="Path_7170" data-name="Path 7170" d="M1057.75,860.312a13.989,13.989,0,1,0,13.98,14,13.994,13.994,0,0,0-13.98-14Zm0,22.092a8.1,8.1,0,1,1,8.092-8.088,8.111,8.111,0,0,1-8.092,8.088Z" transform="translate(-1043.73 -860.312)" fill="#f44"/>
    </g>
    <g id="Group_3729-2" data-name="Group 3729" transform="translate(6257.098 -505)">
      <path id="Path_7170-2" data-name="Path 7170" d="M1057.75,860.312a13.989,13.989,0,1,0,13.98,14,13.994,13.994,0,0,0-13.98-14Zm0,22.092a8.1,8.1,0,1,1,8.092-8.088,8.111,8.111,0,0,1-8.092,8.088Z" transform="translate(-1043.73 -860.312)" fill="#f44"/>
    </g>
    <g id="Group_3730" data-name="Group 3730" transform="translate(6349.964 -505.005)">
      <path id="Path_7171" data-name="Path 7171" d="M1335.59,887.218a2.311,2.311,0,0,1-1.993,1.069h-1.886a2.764,2.764,0,0,1-2.136-.982c-.039-.048-.335-.388-.81-.937l-1.641-1.887-4.247-4.9-.514-.591-2.726,3.159-.14.161v.006l-.006.006-.039.048V885.9a2.361,2.361,0,0,1-.069.562,1.1,1.1,0,0,1-.042.149c-.021.072-.048.137-.075.209a2.34,2.34,0,0,1-2.164,1.463h-.075l-1.389-.006h-.057l-.054-.006c-.066-.009-.132-.018-.194-.03h-.015a2.377,2.377,0,0,1-1.664-1.263c-.03-.057-.054-.114-.081-.173l-.03-.033-.06-.212-.03-.1v-.03c-.021-.09-.036-.185-.051-.278l-.006-.066v-.027c0-.054-.006-.111-.006-.164V862.554l.006-.048V862.5l.006-.057c.012-.093.03-.182.048-.272v-.257l.123-.126c.021-.051.048-.11.081-.176a2.2,2.2,0,0,1,.359-.517,1.95,1.95,0,0,1,.143-.143,2.313,2.313,0,0,1,.938-.541,2.266,2.266,0,0,1,.454-.092h.06c.057,0,.111-.006.165-.006h1.264a2.426,2.426,0,0,1,2.206,1.418,1.561,1.561,0,0,1,.1.281l.045.167v.033a2.328,2.328,0,0,1,.051.487v10.278l2.236-2.577,1.231-1.425c1.168-1.347,2.555-2.95,4.208-4.852.655-.755,1.219-1.406,1.644-1.9.472-.547.768-.884.816-.943a2.753,2.753,0,0,1,2.127-.973h1.886a2.31,2.31,0,0,1,1.993,1.069,2.061,2.061,0,0,1,.09,2.027l-.033.063-.012.021-.015.021a5.625,5.625,0,0,1-.508.7l-.012.018-.009.009-.009.012-.177.206-.487.565-.359.415-.263.3-.275.32c-.188.224-.392.46-.6.7l-1.646,1.908-1.013,1.176-.332.38-.164.191-.32.371-1.65,1.908-.09.1c-.042.045-.081.09-.125.144l-.1.11c-.3.344-.5.586-.594.683l-.033.042-.018.024-.021.024-.413.478.413.475.021.024.018.024.033.042c.09.1.3.341.592.681l.107.122q.054.067.117.135l.09.1,1.65,1.908.32.374.164.188.332.382,1.013,1.173c.568.656,1.13,1.308,1.644,1.9.212.242.415.478.6.7l.278.323.263.3.359.415.49.568.173.2.009.012.009.012.012.015a5.95,5.95,0,0,1,.508.7l.015.021.009.024.033.063.006.006v.006a2.05,2.05,0,0,1-.08,2.029Z" transform="translate(-1313.39 -860.307)" fill="#fff"/>
    </g>
    <g id="Group_3731" data-name="Group 3731" transform="translate(6377.205 -505)">
      <path id="Path_7172" data-name="Path 7172" d="M1565.2,887.251a2.212,2.212,0,0,1-1.868,1.036h-1.778a2.455,2.455,0,0,1-2.062-1.185l-.018-.033-.018-.036-7.74-15.915-7.671,15.831a2.4,2.4,0,0,1-2.161,1.338H1540.1a2.2,2.2,0,0,1-1.885-1.051,2.154,2.154,0,0,1-.036-2.09l10.423-23.675.03-.066.039-.06.033-.051v-.006l.006-.006c.613-.913,2.977-.97,3-.97s2.394.057,3,.973l.015.021.012.021.06.1.027.045.021.048,10.441,23.714a2.077,2.077,0,0,1-.086,2.017Z" transform="translate(-1537.926 -860.312)" fill="#fff"/>
    </g>
    <path id="Path_7173" data-name="Path 7173" d="M310.837,875.188A11.386,11.386,0,0,1,307.3,884.3a13.319,13.319,0,0,1-10.131,4A13.694,13.694,0,0,1,283.513,874.6a13.524,13.524,0,0,1,.083-1.718,13.945,13.945,0,0,1,13.665-12.561c7.119,0,11.387,3.711,13.436,8.731h0c.088.334.066.2.106.4a.955.955,0,0,1-.682,1.209,7.892,7.892,0,0,1-2.375.28c-.231,0-.48-.006-.748-.02a6.773,6.773,0,0,1-1.168-.14l-.051-.011-.414-.091-.2-.046a.319.319,0,0,1-.029-.054l-.006-.011-.011-.023c-1.21-2.8-4.013-4.477-7.493-4.477a8.193,8.193,0,0,0,0,16.378,8.1,8.1,0,0,0,6.9-3.811h-7.205a2.279,2.279,0,0,1-2.272-2.279v-1.2a2.261,2.261,0,0,1,2.124-2.273h11.4a2.187,2.187,0,0,1,2.113,1.475,2.586,2.586,0,0,1,.15.826Z" transform="translate(5941.487 -1365.312)" fill="#fff"/>
  </g>
</svg>
