<svg xmlns="http://www.w3.org/2000/svg" width="116" height="18" viewBox="0 0 116 18"><defs><style>.a{fill:#f44;}.b{fill:#164a9f;}</style></defs><g transform="translate(-6224.998 505.006)"><g transform="translate(6245.69 -505)"><path class="a" d="M598.079,1019.34H598a1.4,1.4,0,1,0,0,2.809.738.738,0,0,0,.081,0v1.013H598a2.418,2.418,0,0,1-2.356-1.88,5.332,5.332,0,0,1-2.968,1.76s-.039.009-.1.02a8.745,8.745,0,0,0,.892.6l.193.109c.064.035.129.074.2.109.042.023.084.043.129.064.094.048.193.094.29.141.112.052.227.1.345.151l.14.057c.064.026.129.051.193.075a8.812,8.812,0,0,0,1.049.322c.216.052.44.1.672.137a8.909,8.909,0,0,0,1.4.111h.07a2.9,2.9,0,0,0,2.62-2.9A2.694,2.694,0,0,0,598.079,1019.34Z" transform="translate(-589.066 -1006.946)"/><path class="b" d="M561.518,861.7a5.89,5.89,0,0,1,1.208,3.576c0,3.276-2.024,5.477-5.337,5.5v-1c2.757-.02,4.326-1.772,4.326-4.5a5,5,0,0,0-4.593-4.949c-.133-.006-.266-.01-.4-.01a9.013,9.013,0,0,0-9.013,8.992c0,.129,0,.257.01.386H549.2v1.077h-1.372a8.788,8.788,0,0,0,.408,1.571l1.107-.514.46.979-1.142.531a7.121,7.121,0,0,0,.382.687,5.72,5.72,0,0,0,3.841-1.163l.136-.1c-.039.073-1.412,2.7-5.313,2.066,1.053.758,4.884,2.26,6.87-1.952a2.422,2.422,0,0,1,2.06-1.156h.081a3.7,3.7,0,0,1,3.669,3.228,3.18,3.18,0,0,1-.986,2.933,7.987,7.987,0,0,0,2.809-1.443c.207-.16.407-.327.6-.5a8.968,8.968,0,0,0-1.3-14.227Zm-7.7,5.476a1.029,1.029,0,1,1,.74-.295A1.029,1.029,0,0,1,553.816,867.172Z" transform="translate(-547.709 -860.315)"/></g><g transform="translate(6266.81 -505.006)"><path class="b" d="M832.047,861.844v14.939a1.525,1.525,0,0,1-1.535,1.511h-.941a1.841,1.841,0,0,1-1.481-.862l-6.8-9.6v8.929a1.535,1.535,0,0,1-1.535,1.532h-.809a1.537,1.537,0,0,1-1.537-1.532v-15l0-.033,0-.031a1.532,1.532,0,0,1,1.506-1.384h.966a1.753,1.753,0,0,1,1.474.913l6.8,9.581v-8.956a1.536,1.536,0,0,1,1.537-1.534h.808A1.536,1.536,0,0,1,832.047,861.844Z" transform="translate(-817.412 -860.306)"/></g><g transform="translate(6284.535 -505.002)"><path class="a" d="M1052.756,860.312a8.993,8.993,0,1,0,9,9A9,9,0,0,0,1052.756,860.312Zm0,14.2a5.208,5.208,0,1,1,5.21-5.2A5.221,5.221,0,0,1,1052.756,874.514Z" transform="translate(-1043.73 -860.312)"/></g><g transform="translate(6305.653 -505.006)"><path class="b" d="M1327.682,877.607a1.488,1.488,0,0,1-1.283.687h-1.214a1.78,1.78,0,0,1-1.375-.631c-.025-.031-.216-.249-.521-.6l-1.057-1.213-2.734-3.152-.331-.38-1.755,2.031-.09.1v0l0,0-.025.031v2.275a1.532,1.532,0,0,1-.044.361.782.782,0,0,1-.027.1c-.014.047-.031.088-.048.134a1.507,1.507,0,0,1-1.393.94h-.048l-.894,0h-.037l-.035,0c-.043-.006-.085-.012-.125-.019h-.01a1.53,1.53,0,0,1-1.071-.812c-.02-.037-.035-.073-.052-.111l-.019-.021-.039-.136-.019-.064V877.1c-.014-.058-.023-.119-.033-.178l0-.043v-.017c0-.035,0-.071,0-.105V861.751l0-.031v-.005l0-.036c.008-.06.019-.117.031-.175v-.165l.079-.081c.014-.033.031-.071.053-.113a1.405,1.405,0,0,1,.231-.332,1.229,1.229,0,0,1,.092-.092,1.489,1.489,0,0,1,.6-.348,1.462,1.462,0,0,1,.292-.059h.039c.037,0,.071,0,.106,0h.814a1.562,1.562,0,0,1,1.42.911,1.009,1.009,0,0,1,.064.181l.029.107v.021a1.483,1.483,0,0,1,.033.313v6.607l1.439-1.657.793-.916c.752-.866,1.645-1.9,2.709-3.119.422-.486.785-.9,1.059-1.221.3-.351.494-.569.526-.606a1.772,1.772,0,0,1,1.369-.626h1.214a1.488,1.488,0,0,1,1.283.687,1.323,1.323,0,0,1,.058,1.3l-.021.04-.008.013-.01.013a3.617,3.617,0,0,1-.327.45l-.008.012-.006.006-.006.008-.114.132-.314.363-.231.266-.169.193-.177.206c-.121.144-.252.3-.386.45l-1.06,1.227-.652.756-.214.244-.105.123-.206.238-1.062,1.227-.058.064c-.027.029-.052.058-.08.092l-.065.071c-.193.221-.322.377-.382.439l-.021.027-.011.016-.014.015-.266.307.266.305.014.015.011.015.021.027c.058.064.193.219.381.438l.069.078c.023.029.048.058.075.087l.058.064,1.062,1.227.206.24.105.121.214.245.652.754,1.058,1.224c.136.155.267.307.386.45l.179.207.169.193.231.266.316.365.112.128.006.008.006.008.008.01a3.8,3.8,0,0,1,.327.45l.01.013.006.016.021.04,0,0v0a1.316,1.316,0,0,1-.051,1.3Z" transform="translate(-1313.39 -860.307)"/></g><g transform="translate(6323.243 -505.002)"><path class="b" d="M1555.484,877.63a1.424,1.424,0,0,1-1.2.666h-1.144a1.581,1.581,0,0,1-1.327-.762l-.011-.021-.011-.023-4.983-10.231-4.938,10.177a1.545,1.545,0,0,1-1.391.86h-1.148a1.417,1.417,0,0,1-1.213-.676,1.382,1.382,0,0,1-.023-1.344l6.71-15.219.019-.042.025-.039.021-.033v0l0,0c.395-.587,1.917-.624,1.931-.624s1.541.037,1.931.626l.01.014.008.013.039.064.017.029.014.031,6.722,15.245A1.334,1.334,0,0,1,1555.484,877.63Z" transform="translate(-1537.926 -860.312)"/></g><path class="b" d="M301.1,869.88a7.314,7.314,0,0,1-2.277,5.855A8.58,8.58,0,0,1,292.3,878.3a8.81,8.81,0,0,1-8.791-8.8,8.673,8.673,0,0,1,.053-1.1,8.972,8.972,0,0,1,8.8-8.075,8.712,8.712,0,0,1,8.65,5.613h0c.057.215.043.129.068.257a.614.614,0,0,1-.439.777,5.082,5.082,0,0,1-1.529.18c-.149,0-.309,0-.482-.013a4.346,4.346,0,0,1-.752-.09l-.033-.007-.267-.058-.129-.03a.194.194,0,0,1-.019-.035l0-.007-.007-.015a5,5,0,0,0-4.824-2.878,5.267,5.267,0,0,0,0,10.529,5.217,5.217,0,0,0,4.442-2.45H292.4a1.466,1.466,0,0,1-1.463-1.465v-.771a1.454,1.454,0,0,1,1.367-1.461h7.339a1.408,1.408,0,0,1,1.36.948,1.661,1.661,0,0,1,.1.531Z" transform="translate(5941.487 -1365.319)"/></g></svg>