<svg xmlns="http://www.w3.org/2000/svg" width="250" height="39" viewBox="0 0 250 39">
  <g id="gonoka_blue" transform="translate(-2.6 -10.1)">
    <g id="Group_3738" data-name="Group 3738" transform="translate(92.701 10.1)">
      <path id="Path_7174" data-name="Path 7174" d="M186.274,13.424V45.776a3.3,3.3,0,0,1-3.317,3.265h-2.014a4,4,0,0,1-3.2-1.84L163.053,26.365V45.716a3.315,3.315,0,0,1-3.317,3.324h-1.718a3.315,3.315,0,0,1-3.317-3.324V13.127a3.331,3.331,0,0,1,3.258-3.027h2.073a3.949,3.949,0,0,1,3.2,1.959l14.691,20.776V13.424a3.315,3.315,0,0,1,3.317-3.324h1.718A3.315,3.315,0,0,1,186.274,13.424Z" transform="translate(-154.7 -10.1)" fill="#164a9f"/>
    </g>
    <g id="Group_3739" data-name="Group 3739" transform="translate(130.909 10.1)">
      <path id="Path_7175" data-name="Path 7175" d="M238.689,10.1a19.5,19.5,0,1,0,19.43,19.53A19.525,19.525,0,0,0,238.689,10.1Zm0,30.808A11.308,11.308,0,1,1,249.944,29.63,11.312,11.312,0,0,1,238.689,40.908Z" transform="translate(-219.2 -10.1)" fill="#ef4849"/>
    </g>
    <g id="Group_3740" data-name="Group 3740" transform="translate(47.206 10.1)">
      <path id="Path_7176" data-name="Path 7176" d="M97.389,10.1a19.5,19.5,0,1,0,19.43,19.53A19.525,19.525,0,0,0,97.389,10.1Zm0,30.808A11.308,11.308,0,1,1,108.644,29.63,11.312,11.312,0,0,1,97.389,40.908Z" transform="translate(-77.9 -10.1)" fill="#ef4849"/>
    </g>
    <g id="Group_3741" data-name="Group 3741" transform="translate(176.404 10.219)">
      <path id="Path_7177" data-name="Path 7177" d="M326.863,47.7a3.18,3.18,0,0,1-2.784,1.484h-2.606a3.794,3.794,0,0,1-2.962-1.365c-.059-.059-.474-.534-1.125-1.306-.592-.653-1.363-1.6-2.251-2.612-2.31-2.671-4.265-4.927-5.924-6.826l-.711-.831-3.791,4.393-.178.237h0l-.059.059v4.927a3.481,3.481,0,0,1-.119.772c0,.119-.059.178-.059.237,0,.119-.059.178-.118.3a3.279,3.279,0,0,1-3.021,2.018h-2.192a.533.533,0,0,1-.3-.059h0a3,3,0,0,1-1.777-1.009,8.671,8.671,0,0,1-.533-.772c-.059-.059-.059-.178-.119-.237l-.059-.059-.059-.3-.059-.119v-.059c0-.119-.059-.237-.059-.416V13.268h0v-.059c0-.119.059-.237.059-.356V12.5l.178-.178a.45.45,0,0,1,.118-.237,4.952,4.952,0,0,1,.474-.712l.178-.178a3.621,3.621,0,0,1,1.3-.772,2.126,2.126,0,0,1,.652-.119h2.073a3.4,3.4,0,0,1,3.08,1.959.859.859,0,0,1,.118.416c0,.059.059.178.059.237h0a2.44,2.44,0,0,1,.059.653V27.871c.829-.95,1.836-2.137,3.08-3.562l1.718-1.959c1.6-1.9,3.554-4.1,5.865-6.767.889-1.068,1.718-1.959,2.31-2.612.652-.772,1.066-1.247,1.126-1.306a3.794,3.794,0,0,1,2.962-1.365h2.606a3.18,3.18,0,0,1,2.784,1.484,2.877,2.877,0,0,1,.118,2.849l-.059.059h0a6.584,6.584,0,0,1-.711.95h0l-.237.3-.652.772-.474.594-.355.416-.355.416a11.892,11.892,0,0,1-.829.95q-1.066,1.247-2.31,2.671l-1.422,1.662-.474.534-.237.237-.415.534-2.31,2.671-.119.119-.178.178-.119.178c-.415.475-.711.831-.829.95l-.059.059V29l-.592.653.592.653v.119a.058.058,0,0,0,.059.059c.118.119.415.475.829.95l.178.178.178.178.118.119,2.31,2.671.415.534.237.237.474.534L321,37.547c.77.89,1.54,1.84,2.31,2.671.3.356.592.653.829.95l.415.475.355.416.474.594.652.772.237.3h0c.237.3.474.594.711.95h0v.059l.059.059h0A3.333,3.333,0,0,1,326.863,47.7Z" transform="translate(-296 -10.3)" fill="#164a9f"/>
    </g>
    <g id="Group_3742" data-name="Group 3742" transform="translate(214.264 10.1)">
      <path id="Path_7178" data-name="Path 7178" d="M397.817,47.616a3.03,3.03,0,0,1-2.606,1.425h-2.488a3.385,3.385,0,0,1-2.843-1.662V47.26L379.1,25.059,368.435,47.141a3.379,3.379,0,0,1-3.021,1.84h-2.488a2.957,2.957,0,0,1-2.606-1.484,2.988,2.988,0,0,1-.059-2.909L374.774,11.7l.059-.119.059-.059.059-.059h0c.829-1.247,4.147-1.365,4.147-1.365s3.317.059,4.147,1.365h0l.059.119.059.059V11.7l14.513,33.064A2.733,2.733,0,0,1,397.817,47.616Z" transform="translate(-359.912 -10.1)" fill="#164a9f"/>
    </g>
    <path id="Path_7179" data-name="Path 7179" d="M40.571,30.858a16,16,0,0,1-4.917,12.7c-3.554,3.68-8.116,5.58-14.1,5.58A19.006,19.006,0,0,1,2.6,30.086a15.552,15.552,0,0,1,.118-2.374C4.022,17.62,11.782,10.437,21.675,10.2c9.893,0,15.817,5.164,18.66,12.169h0c.118.475.118.3.118.534a1.307,1.307,0,0,1-.948,1.662,10.5,10.5,0,0,1-3.317.416H35.122a10.92,10.92,0,0,1-1.6-.178h-.059l-.592-.119-.3-.059a.058.058,0,0,0-.059-.059h0v-.059c-1.659-3.918-5.568-6.233-10.426-6.233a11.4,11.4,0,1,0,9.6,17.511H21.793a3.164,3.164,0,0,1-3.14-3.146V30.976a3.092,3.092,0,0,1,2.962-3.146H37.491a3.067,3.067,0,0,1,2.962,2.078A3.727,3.727,0,0,1,40.571,30.858Z" transform="translate(0 -0.041)" fill="#164a9f"/>
  </g>
</svg>
