<svg xmlns="http://www.w3.org/2000/svg" width="15.103" height="27" viewBox="0 0 15.103 27">
  <g id="arrow" transform="translate(0.603 0.5)">
    <path id="Path_1" data-name="Path 1" d="M18.565,3.5a1.161,1.161,0,0,0-.754.32,1.134,1.134,0,0,0,0,1.561L28.936,17.187,17.887,27.553a1.1,1.1,0,0,0-.075,1.561.958.958,0,0,0,1.471.08L31.161,18.068a1.035,1.035,0,0,0,.339-.8,1.338,1.338,0,0,0-.3-.84L19.32,3.82A1.161,1.161,0,0,0,18.565,3.5Z" transform="translate(-17.5 -3.5)" fill="white" stroke="white" stroke-width="1"/>
  </g>
</svg>
