<svg xmlns="http://www.w3.org/2000/svg" width="12" height="14" viewBox="0 0 12 14">
  <path id="calendar-alt-regular" d="M3.964,7.875H2.893a.326.326,0,0,1-.321-.328V6.453a.326.326,0,0,1,.321-.328H3.964a.326.326,0,0,1,.321.328V7.547A.326.326,0,0,1,3.964,7.875Zm2.893-.328V6.453a.326.326,0,0,0-.321-.328H5.464a.326.326,0,0,0-.321.328V7.547a.326.326,0,0,0,.321.328H6.536A.326.326,0,0,0,6.857,7.547Zm2.571,0V6.453a.326.326,0,0,0-.321-.328H8.036a.326.326,0,0,0-.321.328V7.547a.326.326,0,0,0,.321.328H9.107A.326.326,0,0,0,9.429,7.547ZM6.857,10.172V9.078a.326.326,0,0,0-.321-.328H5.464a.326.326,0,0,0-.321.328v1.094a.326.326,0,0,0,.321.328H6.536A.326.326,0,0,0,6.857,10.172Zm-2.571,0V9.078a.326.326,0,0,0-.321-.328H2.893a.326.326,0,0,0-.321.328v1.094a.326.326,0,0,0,.321.328H3.964A.326.326,0,0,0,4.286,10.172Zm5.143,0V9.078a.326.326,0,0,0-.321-.328H8.036a.326.326,0,0,0-.321.328v1.094a.326.326,0,0,0,.321.328H9.107A.326.326,0,0,0,9.429,10.172ZM12,3.063v9.625A1.3,1.3,0,0,1,10.714,14H1.286A1.3,1.3,0,0,1,0,12.688V3.063A1.3,1.3,0,0,1,1.286,1.75H2.571V.328A.326.326,0,0,1,2.893,0H3.964a.326.326,0,0,1,.321.328V1.75H7.714V.328A.326.326,0,0,1,8.036,0H9.107a.326.326,0,0,1,.321.328V1.75h1.286A1.3,1.3,0,0,1,12,3.063Zm-1.286,9.461V4.375H1.286v8.148a.163.163,0,0,0,.161.164h9.107A.163.163,0,0,0,10.714,12.523Z" fill="#EF4444"/>
</svg>
