<svg xmlns="http://www.w3.org/2000/svg" width="7.602" height="13.143" viewBox="0 0 7.602 13.143">
  <g id="Component_3_1" data-name="Component 3 – 1" transform="translate(0.564 0.5)">
    <path id="Path_1" data-name="Path 1" d="M18,3.5a.542.542,0,0,0-.352.15.53.53,0,0,0,0,.729l5.2,5.514-5.16,4.841a.514.514,0,0,0-.035.729.447.447,0,0,0,.687.037l5.548-5.2a.483.483,0,0,0,.159-.374.625.625,0,0,0-.141-.393L18.35,3.65A.542.542,0,0,0,18,3.5Z" transform="translate(-17.5 -3.5)" fill="#164a9f" stroke="#164a9f" stroke-width="1"/>
  </g>
</svg>
