<svg xmlns="http://www.w3.org/2000/svg" width="16" height="16" viewBox="0 0 16 16">
  <g id="profile" transform="translate(-172.962 -95)">
    <path id="Path_7174" data-name="Path 7174" d="M597.461,1019.336v0l-.072,0a1.247,1.247,0,1,0,0,2.494.636.636,0,0,0,.072,0v.9h-.072a2.146,2.146,0,0,1-2.091-1.669,4.732,4.732,0,0,1-2.634,1.562l-.09.019a7.8,7.8,0,0,0,.792.532c.056.032.111.065.171.1s.117.065.178.1l.111.057c.084.042.17.084.257.125s.2.09.306.134l.125.05c.057.023.115.045.174.066a7.807,7.807,0,0,0,.931.284c.192.046.391.087.6.122a7.878,7.878,0,0,0,1.246.1h.062a2.569,2.569,0,0,0,2.325-2.573A2.392,2.392,0,0,0,597.461,1019.336Z" transform="translate(-416.498 -913.299)" fill="#EF4444"/>
    <g id="ic_profile">
      <g id="Group_4091" data-name="Group 4091">
        <path id="Path_7175" data-name="Path 7175" d="M559.966,861.543a5.247,5.247,0,0,1,1.073,3.182,4.517,4.517,0,0,1-4.737,4.89v-.889c2.447-.018,3.839-1.576,3.839-4a4.445,4.445,0,0,0-4.077-4.4c-.118-.005-.236-.009-.356-.009a8.01,8.01,0,0,0-8,8c0,.114,0,.228.009.341h1.319v.958h-1.221a7.82,7.82,0,0,0,.362,1.4l.983-.46.408.871-1.014.473a6.362,6.362,0,0,0,.34.612,5.071,5.071,0,0,0,3.409-1.034l.121-.092c-.034.065-1.253,2.4-4.716,1.838a3.968,3.968,0,0,0,6.1-1.737,2.149,2.149,0,0,1,1.831-1.026h.071a3.288,3.288,0,0,1,3.26,2.871,2.833,2.833,0,0,1-.875,2.609,7.09,7.09,0,0,0,2.493-1.284c.183-.142.361-.291.53-.449a7.989,7.989,0,0,0-1.15-12.657Zm-6.837,4.871a.913.913,0,1,1,.93-.913A.922.922,0,0,1,553.129,866.414Z" transform="translate(-374.746 -765.312)" fill="#EF4444"/>
      </g>
    </g>
  </g>
</svg>
