<svg xmlns="http://www.w3.org/2000/svg" width="11" height="14" viewBox="0 0 11 14">
  <path id="file-download-solid" d="M6.417,3.719V0H.688A.671.671,0,0,0,0,.656V13.344A.671.671,0,0,0,.688,14h9.625A.671.671,0,0,0,11,13.344V4.375H7.1A.674.674,0,0,1,6.417,3.719ZM8.607,9.5,5.845,12.115a.505.505,0,0,1-.689,0L2.394,9.5a.435.435,0,0,1,.322-.748H4.583V6.563a.448.448,0,0,1,.458-.438h.917a.448.448,0,0,1,.458.438V8.75H8.284a.435.435,0,0,1,.323.748ZM10.8,2.871,8,.191A.7.7,0,0,0,7.508,0H7.333V3.5H11V3.333A.639.639,0,0,0,10.8,2.871Z" fill="#164a9f"/>
</svg>
