<svg id="noun_edit_3532093" xmlns="http://www.w3.org/2000/svg" width="24" height="24" viewBox="0 0 24 24">
  <path id="Path_18" data-name="Path 18" d="M19,11.93a1,1,0,0,0-1,1V21.2a.8.8,0,0,1-.8.8H2.8a.8.8,0,0,1-.8-.8V6.8A.8.8,0,0,1,2.8,6h8.48a1,1,0,1,0,0-2H2.8A2.81,2.81,0,0,0,0,6.8V21.2A2.81,2.81,0,0,0,2.8,24H17.2A2.81,2.81,0,0,0,20,21.2V12.93A1,1,0,0,0,19,11.93Z" fill="#164a9f"/>
  <path id="Path_19" data-name="Path 19" d="M20.34.48A1.7,1.7,0,0,0,19.15,0,1.68,1.68,0,0,0,18,.48L14.51,4,7.84,10.77a1.71,1.71,0,0,0-.49,1.08l-.2,3.44a1.67,1.67,0,0,0,.49,1.31,1.69,1.69,0,0,0,1.19.5l3.49-.2a1.57,1.57,0,0,0,1.08-.5L23.53,6.12a1.74,1.74,0,0,0,0-2.41Zm-8.26,14.4-2.93.19.14-2.94,7.39-7.5,2.76,2.8ZM20.83,6,18.09,3.22l1.07-1.08,2.75,2.8Z" transform="translate(-0.015)" fill="#164a9f"/>
</svg>
