<svg xmlns="http://www.w3.org/2000/svg" width="12" height="12" viewBox="0 0 12 12">
  <path id="times-circle-regular" d="M162.474,153.132l-3.543,3.543,3.543,3.543a.684.684,0,0,1,0,.968l-1.287,1.287a.684.684,0,0,1-.968,0l-3.543-3.543-3.543,3.543a.684.684,0,0,1-.968,0l-1.287-1.287a.684.684,0,0,1,0-.968l3.543-3.543-3.543-3.543a.684.684,0,0,1,0-.968l1.287-1.287a.684.684,0,0,1,.968,0l3.543,3.543,3.543-3.543a.684.684,0,0,1,.968,0l1.287,1.287A.684.684,0,0,1,162.474,153.132Z" transform="translate(-150.675 -150.675)" fill="#2a2f39"/>
</svg>
