<svg xmlns="http://www.w3.org/2000/svg" width="36.264" height="33" viewBox="0 0 36.264 33">
  <g id="checking-attendance" transform="translate(0 -0.706)">
    <g id="Group_400" data-name="Group 400" transform="translate(0 0.706)">
      <path id="Path_261" data-name="Path 261" d="M3.111,10.883a1.923,1.923,0,0,0,.481,1.047c.467,3.111,3.067,6,5.445,6,2.771,0,5.294-3.124,5.78-5.99a1.9,1.9,0,0,0,.49-1.054c.157-.582.361-1.595,0-2.071a.864.864,0,0,0-.058-.067c.335-1.223.758-3.751-.756-5.472a5.594,5.594,0,0,0-2.8-1.722l-.867-.3A13.853,13.853,0,0,0,8.468.708a.609.609,0,0,0-.194.016.976.976,0,0,1-.351.042,2.4,2.4,0,0,0-.945.162A6.782,6.782,0,0,0,3.255,4.66c-.079.208-.414,1.3.032,3.989a.769.769,0,0,0-.178.169C2.748,9.289,2.952,10.3,3.111,10.883Z" transform="translate(3.812 -0.706)" fill="#dcdcdc"/>
      <path id="Path_262" data-name="Path 262" d="M17.989,21.6c-.511-.287-1.065-.562-1.657-.823-.287-.127-.578-.247-.867-.361-.226-.086-.495-.2-.682-.245l-2.741-.74L17.17,9l2.2,1.387c.465.291.807.538,1.181.813l.079.058q.558.413,1.1.848a27.27,27.27,0,0,1,2.108,1.879l.143.141c.215-.238.425-.451.636-.679a9.005,9.005,0,0,0-.991-2.126,4.394,4.394,0,0,0-1.9-1.283S21.6,10,21.43,9.941a21.529,21.529,0,0,0-2.32-.915c-.243-.088-.455-.173-.647-.257-.809-.4-1.481-.85-1.62-1.276,0,0,.467,4.518-3.483,4.624l-.55-.025c-3.58-.319-3.818-4.608-3.818-4.608-.374,1.176-4.876,2.544-4.876,2.544a4.4,4.4,0,0,0-1.9,1.285C.233,14.248,0,20.779,0,20.779c.025,1.493.67,1.648.67,1.648,4.55,2.031,11.689,2.39,11.689,2.39.386.009.744-.012,1.1-.032l.009.037a49.647,49.647,0,0,0,7.139-.978l-.446-.585A7.616,7.616,0,0,0,17.989,21.6Z" transform="translate(0 8.179)" fill="#dcdcdc"/>
      <path id="Path_263" data-name="Path 263" d="M7.222,7.717c.049-.062.1-.125.153-.194a.45.45,0,0,1-.014-.062C7.317,7.55,7.266,7.626,7.222,7.717Z" transform="translate(9.468 8.148)" fill="#dcdcdc"/>
      <path id="Path_264" data-name="Path 264" d="M3.912,7.509,3.9,7.46l-.009.051c0-.009.012-.018.014-.028A.069.069,0,0,1,3.912,7.509Z" transform="translate(5.101 8.148)" fill="#dcdcdc"/>
      <path id="Path_265" data-name="Path 265" d="M23.348,9.609a33.325,33.325,0,0,0-3.656,3.039c-1.153,1.1-2.246,2.249-3.3,3.439-.391.444-.77.892-1.146,1.343a.094.094,0,0,1-.012-.021,18.13,18.13,0,0,0-1.779-2.015c-.624-.615-1.271-1.183-1.937-1.724-.335-.268-.672-.532-1.017-.79s-.672-.492-1.112-.77L6.661,17.667c.25.067.612.208.92.328.326.125.645.259.964.4.638.282,1.259.589,1.853.92a9.73,9.73,0,0,1,2.891,2.272l2.1,2.755L16.6,21.72c.608-1.313,1.336-2.685,2.082-3.993s1.558-2.609,2.429-3.855a31.459,31.459,0,0,1,2.849-3.559,14.077,14.077,0,0,1,3.573-2.856A14.788,14.788,0,0,0,23.348,9.609Z" transform="translate(8.732 8.144)" fill="#dcdcdc"/>
    </g>
  </g>
</svg>
