<svg xmlns="http://www.w3.org/2000/svg" width="115.418" height="16" viewBox="0 0 115.418 16">
  <g id="cotafer-logo" transform="translate(-3.7 -2.5)">
    <g id="Group_643" data-name="Group 643" transform="translate(88.432 3.041)">
      <path id="Path_1389" data-name="Path 1389" d="M379.7,59.51h0A1.51,1.51,0,0,1,381.21,58h10.817a1.51,1.51,0,0,1,1.51,1.51h0a1.51,1.51,0,0,1-1.51,1.51H381.21A1.51,1.51,0,0,1,379.7,59.51Z" transform="translate(-379.7 -46.034)" fill="#ee4748"/>
      <path id="Path_1390" data-name="Path 1390" d="M379.7,32.91h0a1.51,1.51,0,0,1,1.51-1.51h10.817a1.51,1.51,0,0,1,1.51,1.51h0a1.51,1.51,0,0,1-1.51,1.51H381.21A1.51,1.51,0,0,1,379.7,32.91Z" transform="translate(-379.7 -25.428)" fill="#ee4748"/>
      <path id="Path_1391" data-name="Path 1391" d="M379.7,6.41h0a1.51,1.51,0,0,1,1.51-1.51h10.817a1.51,1.51,0,0,1,1.51,1.51h0a1.51,1.51,0,0,1-1.51,1.51H381.21A1.54,1.54,0,0,1,379.7,6.41Z" transform="translate(-379.7 -4.9)" fill="#ee4748"/>
    </g>
    <path id="Path_1392" data-name="Path 1392" d="M168.5,4.9H156.51a1.51,1.51,0,0,0,0,3.02h4.485V18.4a1.51,1.51,0,1,0,3.02,0V7.9H168.5a1.5,1.5,0,1,0,0-3Z" transform="translate(-117.204 -1.859)" fill="#364152"/>
    <path id="Path_1393" data-name="Path 1393" d="M237.16,17.823,231.571,5.856A1.5,1.5,0,0,0,230.219,5h-1.577a1.5,1.5,0,0,0-1.352.856L221.7,17.845a1.5,1.5,0,0,0,1.352,2.141h0a1.5,1.5,0,0,0,1.352-.856l5-10.727,5,10.727a1.5,1.5,0,0,0,1.352.856h.023A1.539,1.539,0,0,0,237.16,17.823Z" transform="translate(-168.761 -1.937)" fill="#364152"/>
    <path id="Path_1394" data-name="Path 1394" d="M317.307,4.9h-6.513a5.914,5.914,0,0,0-2.975.789,6.22,6.22,0,0,0-2.141,2.051,5.9,5.9,0,0,0-.879,3.132v7.482a1.43,1.43,0,0,0,.451,1.059,1.5,1.5,0,0,0,2.569-1.059V13.892h5.994a1.51,1.51,0,0,0,0-3.02H307.82A2.972,2.972,0,0,1,310.794,7.9h6.513a1.442,1.442,0,0,0,1.375-1.51A1.451,1.451,0,0,0,317.307,4.9Z" transform="translate(-233.246 -1.859)" fill="#364152"/>
    <path id="Path_1395" data-name="Path 1395" d="M465.6,13.463a4.27,4.27,0,0,0,1.285-.9A4.494,4.494,0,0,0,463.707,4.9H454.4v8.992h0V18.4a1.51,1.51,0,1,0,3.02,0V13.892h4.98l3.042,5.251a1.485,1.485,0,0,0,1.307.744,1.514,1.514,0,0,0,1.307-2.254Zm-4.958-2.592H457.4V7.9h6.332a1.5,1.5,0,0,1,1.487,1.487,1.476,1.476,0,0,1-1.127,1.442,1.751,1.751,0,0,1-.361.045Z" transform="translate(-349.134 -1.859)" fill="#364152"/>
    <path id="Path_1396" data-name="Path 1396" d="M17.176,16.966H11.182a4.485,4.485,0,0,1,0-8.969h5.994a1.5,1.5,0,0,0,1.059-.428A1.5,1.5,0,0,0,17.176,5H11.182a7.482,7.482,0,1,0,0,14.963h5.994a1.43,1.43,0,0,0,1.059-.451,1.52,1.52,0,0,0,.451-1.059A1.491,1.491,0,0,0,17.176,16.966Z" transform="translate(0 -1.937)" fill="#364152"/>
    <path id="Path_1397" data-name="Path 1397" d="M77.508,13.745a8.456,8.456,0,0,1-.608-3.223A8.457,8.457,0,0,1,77.508,7.3a7.688,7.688,0,0,1,1.668-2.546,7.515,7.515,0,0,1,2.569-1.645A8.572,8.572,0,0,1,84.99,2.5a8.433,8.433,0,0,1,4.146,1.014,7.431,7.431,0,0,1,2.885,2.839A8.152,8.152,0,0,1,93.058,10.5a8.152,8.152,0,0,1-1.037,4.146,7.283,7.283,0,0,1-2.885,2.839A8.434,8.434,0,0,1,84.99,18.5a8.656,8.656,0,0,1-3.245-.608,7.515,7.515,0,0,1-2.569-1.645A6.774,6.774,0,0,1,77.508,13.745Zm2.772-3.223a5.311,5.311,0,0,0,1.285,3.651,4.735,4.735,0,0,0,6.806,0,5.311,5.311,0,0,0,1.285-3.651A5.233,5.233,0,0,0,88.37,6.872a4.735,4.735,0,0,0-6.806,0A5.272,5.272,0,0,0,80.28,10.523Z" transform="translate(-56.704 0)" fill="#364152"/>
  </g>
</svg>
