<svg xmlns="http://www.w3.org/2000/svg" xmlns:xlink="http://www.w3.org/1999/xlink" width="590.612" height="462.13" viewBox="0 0 590.612 462.13">
  <defs>
    <linearGradient id="linear-gradient" y1="0.5" x2="1" y2="0.5" gradientUnits="objectBoundingBox">
      <stop offset="0" stop-color="gray" stop-opacity="0.251"/>
      <stop offset="0.54" stop-color="gray" stop-opacity="0.122"/>
      <stop offset="1" stop-color="gray" stop-opacity="0.102"/>
    </linearGradient>
  </defs>
  <g id="empty" transform="translate(0.004 -0.003)">
    <ellipse id="Ellipse_47" data-name="Ellipse 47" cx="103.024" cy="19.517" rx="103.024" ry="19.517" transform="translate(104.151 414.149)" fill="#244087" opacity="0.1"/>
    <path id="Path_151" data-name="Path 151" d="M438.377,120.2c-37.863-1.31-73.924-13.538-108.359-26.911s-68.542-28.187-105.5-35.271c-23.77-4.557-50.956-5.207-70.1,7.523-18.434,12.286-24.39,33.434-27.59,53.074-2.41,14.778-3.826,30.334,2.773,44.17,4.587,9.606,12.719,17.68,18.347,26.882,19.581,32.013,5.739,71.49-15.474,102.749-9.945,14.661-21.5,28.666-29.181,44.257s-11.233,33.516-4.511,49.464c6.658,15.8,22.529,27.637,39.723,35.973,34.92,16.937,76.054,21.781,116.193,24.53,88.825,6.073,178.118,3.446,267.177.807,32.961-.971,66.061-1.96,98.484-7.055,18.007-2.832,36.594-7.325,49.669-18.171,16.591-13.766,20.7-37.073,9.583-54.332-18.651-28.959-70.2-36.149-83.255-67.22-7.172-17.106.193-36.155,10.624-52.015,22.372-34.031,59.866-63.885,61.837-102.778,1.357-26.712-16.667-53.466-44.538-66.108-29.21-13.251-69.724-11.584-91.264,10.349C510.809,112.68,471.811,121.368,438.377,120.2Z" transform="translate(-95.23 -55.03)" fill="#244087" opacity="0.1"/>
    <path id="Path_152" data-name="Path 152" d="M500.771,306.543l-17.919-12.081h0l9.039-13.456-47.329-3.773-17.007,13.151L406.265,278.45l-17.756,2.135-.211-4.68a132.1,132.1,0,0,0-1.468-14.567c.076-1.463.129-3.142.123-4.967,0-7.693-1.041-17.89-5.616-24.688l1.053-9.466-8.541-10.092a64.562,64.562,0,0,1,4.68-7.874c.292-.421.585-.831.9-1.229a21.242,21.242,0,0,0,19.832-21.061,13.471,13.471,0,0,0-.059-1.539,5.577,5.577,0,0,0-.064-.62c1.082.585,2.176,1.17,3.27,1.755.2.293.439.585.7.93h0l.053.064.328.4.105.123c.117.14.24.275.363.415l.082.094c.31.345.638.7.989,1.041a1.054,1.054,0,0,1,.117.111l.439.41.123.111c.374.333.772.655,1.17.959l.129.094.5.345.164.105c.193.117.392.24.585.351l.07.041c.228.123.462.24.7.351l.117.047q.3.129.585.246l.181.064c.2.07.4.135.614.193l.129.035c.257.064.515.117.778.158h.029a6.364,6.364,0,0,0,.749.076h.17a6.434,6.434,0,0,0,.673,0h.146a6.935,6.935,0,0,0,.837-.1,9.232,9.232,0,0,0,3.686-1.322,3.216,3.216,0,0,0,.749-.7,2.758,2.758,0,0,0-.117-3.212h0c-.456-1.088-3.417-1.855-3.417-1.855s-9.36-3.908-9.36-7.02-2.34-19.259-26.5-22.951c0,0-15.714-.883-20.131,7.529l-.094.983c-1.3.813-2.375,2.445-3.656,2.925a5.973,5.973,0,0,0-1.585.585v-.111h0a1.509,1.509,0,0,0-.357.462,4.68,4.68,0,0,0-.486,1.755,6.61,6.61,0,0,1-.766,2.124,4.73,4.73,0,0,1-.351.538h0l-.1.158a4.27,4.27,0,0,0,1.989-.322,9.908,9.908,0,0,1-.585,2.34,1.942,1.942,0,0,0,1.8-1.076v-.047l.076-.105a4.936,4.936,0,0,0,.363-.848l-.064.07c.117-.38.222-.766.351-1.141a1.79,1.79,0,0,1,.287-.585,1.416,1.416,0,0,1,1.211-.4l-.24,5.072h.105a6.918,6.918,0,0,1-.515,1.065c-.831,1.346-2.34,2.264-2.9,3.738a5.5,5.5,0,0,0-.269,2.211c0,.439.053.883.088,1.322v-.035a4.934,4.934,0,0,1-.527,3.224c-.433.644-1.129,1.129-1.369,1.86a1.814,1.814,0,0,0-.088.632,7.094,7.094,0,0,0,.4,1.878.082.082,0,0,0,0-.035,2.855,2.855,0,0,1,.1,1.381c-.263,1.17-1.685,2.147-1.615,3.264a1.259,1.259,0,0,0,.064.433,2.369,2.369,0,0,0,1.322,1.17,5.148,5.148,0,0,0,2.972.655,3.907,3.907,0,0,0,1.112-.38c-.41.942-.831,1.872-1.258,2.755-.064.14-.135.281-.2.421,0,0-3.615-2.416-5.669,2.51a10.929,10.929,0,0,0-1.27,3.3,7.848,7.848,0,0,1-.433,1.357,8.734,8.734,0,0,1-3.908,3.51c-4.189,1.919-21.108,23.021-21.406,28.485a31.88,31.88,0,0,1-1.076,6.307,37.529,37.529,0,0,0-1.006,14.912,28.53,28.53,0,0,0,1.035,4.756c1.8,5.458,3,15.644,3,15.644l1.942,17.68a50.315,50.315,0,0,0,.316,7.307c-1.983,2.264-9.945,11.7-6.9,14.269,2.34,2.024,6.435,1.691,8.734,1.275-1.936,4.791-4.984,13.122-5.388,18.844-.585,8.465,1,19.68,3.51,23.986s10.876,15.351,10.876,15.351-.392,15.152,2.6,20.657,4.195,16.925,4.195,16.925,2.791,9.641,1.392,13.187,2.592,6.494-1.6,8.852-9.548,55.5-9.548,55.5-2.159,34.827,0,36.6a2.194,2.194,0,0,0,.369.217v11.7s-1.5,2.457,4.592,2.954c4.171.333,15.995,1.088,23.009,1.527l5.435.339s12.871,2.562,18.557,0,15.767-2.5,14.269-9.273a19.264,19.264,0,0,0-.8-2.709c-1.644-4.2-4.435-4.68-9.577-5.85-.3-.064-.585-.123-.848-.17-5.417-.942-7.2,1.58-10.232-1.7-2.638-2.837-11.039-6.014-13.9-7.02.07-.211.158-.415.228-.632a4.282,4.282,0,0,1-2.17-1.059l7.752.491,4.616.287s10.94,2.182,15.8,0,13.4-2.124,12.122-7.875a16.51,16.51,0,0,0-.673-2.3c-1.4-3.569-3.773-3.961-8.144-4.949-.252-.053-.486-.105-.72-.146-4.6-.8-6.114,1.34-8.694-1.445-2.211-2.375-9.191-5.037-11.7-5.944,0-1.3-1.755-3.147-2.861-5-1.3-2.165,1.1-9.741,1.1-9.741l1.369-31.434a6.072,6.072,0,0,1,1.638-.468s6.19-5.909,4.791-12.2a40.447,40.447,0,0,1-.445-5.751c2.036-1.89,4.838-4.68,5.634-6.4,1.3-2.8,0-16.381,0-16.381V354.978l10.355,1.047,9.4.965,2.861.293,9.4.948,21.593,2.182,19.458-3.686,8.419-1.591,17.311-3.276V309.5ZM358.252,166.189l-1.205-.129C357.445,166.078,357.866,166.154,358.252,166.189Z" transform="translate(-187.712 -94.913)" fill="url(#linear-gradient)"/>
    <path id="Path_153" data-name="Path 153" d="M526.375,448.746c-5.85,8.372-26.882,3.937-26.882,3.937l-16.3-15.252L481,435.366l3.68-7.816s1.17.322,3.177.9C498.393,431.5,531.313,441.708,526.375,448.746Z" transform="translate(-255.315 -209.614)" fill="#efb7b9"/>
    <path id="Path_154" data-name="Path 154" d="M487.845,428.445a34.323,34.323,0,0,1-4.651,8.986L481,435.366l3.68-7.816S485.862,427.872,487.845,428.445Z" transform="translate(-255.315 -209.614)" opacity="0.1"/>
    <path id="Path_155" data-name="Path 155" d="M387,278.246s-15.023,6.664-14.286,23.027a269.81,269.81,0,0,0,3.44,31.451s-3.071,24.624,9.717,30.971,24.624,11.566,24.624,11.566,20.008,2.153,22.494,3.042,10.256-12.707,8.822-14.825-19.8-6.558-22.138-10.092-7.752-5.716-7.752-5.716-5.587-3.381-5.967-6.435,1.094-5.33,1.469-6.669,1.322-14.275,1.322-14.275S415.05,274.25,387,278.246Z" transform="translate(-210.368 -147.555)" fill="#dce6f2"/>
    <path id="Path_156" data-name="Path 156" d="M400.8,370.39s-20.611,3.452-18.616,10.665A43.7,43.7,0,0,1,400.8,370.39Z" transform="translate(-214.253 -185.894)" opacity="0.1"/>
    <path id="Path_157" data-name="Path 157" d="M407.7,375.38s-11.332,9.249-9.115,9.723S407.7,375.38,407.7,375.38Z" transform="translate(-220.996 -187.965)" opacity="0.1"/>
    <path id="Path_158" data-name="Path 158" d="M422.42,380.89s-3.036,6.219-1.17,5.8S422.42,380.89,422.42,380.89Z" transform="translate(-230.269 -190.251)" opacity="0.1"/>
    <path id="Path_159" data-name="Path 159" d="M444.193,367.512l-1.252-.357a3.577,3.577,0,0,0,.164-2.557c-1.433-2.118-19.786-6.552-22.12-10.092s-7.752-5.716-7.752-5.716-5.587-3.381-5.967-6.435,1.094-5.33,1.468-6.669,1.322-14.281,1.322-14.281,6.289-46.036-21.763-42.04c0,0-15.023,6.669-14.292,23.033a269.037,269.037,0,0,0,3.446,31.451s-3.071,24.624,9.717,30.971,24.624,11.566,24.624,11.566,20,2.147,22.494,3.042c.942.339,2.644-1.41,4.312-3.814l.948.883,16.3,15.246s21.032,4.44,26.882-3.931C487.667,380.769,454.753,370.566,444.193,367.512Z" transform="translate(-210.903 -148.019)" opacity="0.1"/>
    <path id="Path_160" data-name="Path 160" d="M379.872,171.053a4.973,4.973,0,0,0-1.621.626c-.585.486-.585,1.316-.731,2.042a6.716,6.716,0,0,1-1.17,2.8,4.207,4.207,0,0,0,1.948-.322,10.029,10.029,0,0,1-.585,2.34,1.9,1.9,0,0,0,1.755-1.071,11.266,11.266,0,0,0,.731-2.053,1.691,1.691,0,0,1,.281-.585c.538-.638,1.539-.351,2.369-.269a3.891,3.891,0,0,0,3.557-1.708c.883-1.34.936-4.768-1.17-5.131C383.037,167.356,381.668,170.386,379.872,171.053Z" transform="translate(-211.888 -101.779)" fill="#965d7b"/>
    <g id="Group_274" data-name="Group 274" transform="translate(164.549 69.749)" opacity="0.1">
      <path id="Path_161" data-name="Path 161" d="M378.844,175.122c.053-.287.088-.585.152-.872h0a3.432,3.432,0,0,0-.731,2.042,6.436,6.436,0,0,1-.345,1.234,6.7,6.7,0,0,0,.924-2.4Z" transform="translate(-377.089 -174.25)"/>
      <path id="Path_162" data-name="Path 162" d="M378.442,182.34a9.73,9.73,0,0,0,.585-2.34,4.188,4.188,0,0,1-1.855.322,6.77,6.77,0,0,1-.673,1.17,4.166,4.166,0,0,0,1.942-.316,9.727,9.727,0,0,1-.585,2.34,1.9,1.9,0,0,0,1.755-1.071,4.368,4.368,0,0,0,.351-.837,1.755,1.755,0,0,1-1.521.731Z" transform="translate(-376.5 -176.636)"/>
      <path id="Path_163" data-name="Path 163" d="M386.616,176.183c-.831-.082-1.837-.369-2.375.269a1.807,1.807,0,0,0-.281.585c-.053.152-.1.31-.14.468.556-.439,1.457-.2,2.211-.129a3.908,3.908,0,0,0,3.557-1.708,3.238,3.238,0,0,0,.392-.919A3.9,3.9,0,0,1,386.616,176.183Z" transform="translate(-379.538 -174.457)"/>
    </g>
    <path id="Path_164" data-name="Path 164" d="M315.095,201l8.922,10.729-1.164,10.829L312.07,205.68Z" transform="translate(-129.502 -83.408)" fill="#dce6f2"/>
    <path id="Path_165" data-name="Path 165" d="M324.01,211.729l-1.094,10.185-.07.644-9.729-15.234-1.047-1.644.3-.474L315.089,201l.6.725Z" transform="translate(-129.502 -83.408)" opacity="0.1"/>
    <path id="Path_166" data-name="Path 166" d="M409.416,220.017c-3.019.866-5.9,3.838-8.413,7.447a63.557,63.557,0,0,0-4.54,7.8c-.825,1.65-1.55,3.235-2.153,4.616l-.421.983c-1.018,2.4-1.585,4.013-1.585,4.013S369.2,227.5,372.852,226.335c1.229-.392,2.843-3.025,4.44-6.342l.2-.421c1.012-2.129,2.007-4.5,2.89-6.74,1.808-4.592,3.147-8.582,3.147-8.582S418.63,217.384,409.416,220.017Z" transform="translate(-210.274 -116.951)" fill="#efb7b9"/>
    <path id="Path_167" data-name="Path 167" d="M459.26,202.58s5.336,9.653,12.5,8.337,4.218-5.183,4.218-5.183Z" transform="translate(-246.294 -116.258)" fill="#444053"/>
    <path id="Path_168" data-name="Path 168" d="M411.106,757.571c-4.727,2.159-15.415,0-15.415,0l-4.5-.281c-5.85-.375-15.644-1.006-19.107-1.287-5.055-.415-3.814-2.486-3.814-2.486V741l24.524-6.213s9.694,3.317,12.35,6.213c2.521,2.761,4,.638,8.495,1.433.222.041.456.088.7.146,4.271.977,6.587,1.363,7.956,4.9a16.443,16.443,0,0,1,.661,2.282C424.217,755.465,415.827,755.424,411.106,757.571Z" transform="translate(-208.477 -337.109)" fill="#a36468"/>
    <path id="Path_169" data-name="Path 169" d="M422.292,752.909a18.342,18.342,0,0,1-2.761,1.416c-3.218,1.468-6.277,3.259-9.53,4.645a22.29,22.29,0,0,1-10.279,2.112c-1.843-.135-3.727-.585-5.488-.058a12.67,12.67,0,0,0-3.048,1.691c-5.85-.374-15.644-1.006-19.107-1.287-5.055-.415-3.814-2.486-3.814-2.486v-1.463c.181,0,.386-.053.62-.07a11.046,11.046,0,0,1,3.569.532c2.539.69,5.066,1.369,7.605,2.048a6.008,6.008,0,0,1,2.925-3.733,9.324,9.324,0,0,1,4.715-1.082c3.937.053,7.664,1.919,11.6,2.106a6.39,6.39,0,0,0,3.212-.538c.538-.269,1.012-.661,1.539-.96a11.229,11.229,0,0,1,2.65-.9,58.356,58.356,0,0,0,7.576-2.445c.7-.275,1.521-.772,1.427-1.521-.123-.995-1.685-1.112-2.094-2.024a1.17,1.17,0,0,1,.047-1.035c.222.041.456.088.7.146C418.606,748.983,420.923,749.369,422.292,752.909Z" transform="translate(-208.477 -342.533)" opacity="0.1"/>
    <path id="Path_170" data-name="Path 170" d="M397.188,801.512c-5.558,2.539-18.136,0-18.136,0l-5.294-.31c-6.857-.439-18.405-1.17-22.483-1.515-5.95-.491-4.487-2.925-4.487-2.925V782.013l28.859-7.313s11.408,3.9,14.532,7.313c2.966,3.247,4.68.749,10,1.685.263.047.538.105.825.17,5.025,1.17,7.752,1.609,9.36,5.774a18.781,18.781,0,0,1,.778,2.685C412.591,799.031,402.745,798.979,397.188,801.512Z" transform="translate(-199.555 -353.671)" fill="#a36468"/>
    <path id="Path_171" data-name="Path 171" d="M410.351,796.045a21.781,21.781,0,0,1-3.247,1.667c-3.785,1.726-7.389,3.832-11.215,5.464a26.29,26.29,0,0,1-12.1,2.486c-2.165-.158-4.382-.7-6.435-.07a14.917,14.917,0,0,0-3.6,2.013c-6.857-.439-18.405-1.17-22.483-1.515-5.95-.491-4.487-2.925-4.487-2.925v-1.72a7.317,7.317,0,0,1,.731-.082,12.834,12.834,0,0,1,4.2.626l8.945,2.41a7.079,7.079,0,0,1,3.469-4.394,10.917,10.917,0,0,1,5.552-1.275c4.633.064,9.015,2.258,13.643,2.48a7.553,7.553,0,0,0,3.768-.626c.638-.322,1.17-.784,1.814-1.129a12.72,12.72,0,0,1,3.118-1.053,70.023,70.023,0,0,0,8.869-2.878c.825-.328,1.79-.913,1.679-1.79-.146-1.17-1.983-1.31-2.469-2.387a1.41,1.41,0,0,1,.058-1.217c.263.047.538.105.825.17C406.016,791.423,408.742,791.879,410.351,796.045Z" transform="translate(-199.555 -360.074)" opacity="0.1"/>
    <path id="Path_172" data-name="Path 172" d="M397.951,647.54,396.389,684.3s-2.34,7.506-1.071,9.653,3.411,4.288,2.633,5.558-10.139,14.994-13.163,9.729-6.008-28.081-6.008-28.081l2.791-28.181Z" transform="translate(-212.897 -300.903)" fill="#444053"/>
    <path id="Path_173" data-name="Path 173" d="M416.905,491l4.341,5.8V547.28s1.27,13.456,0,16.235-7.7,8.337-7.7,8.337l-5.411-27.789,1.17-29.4Z" transform="translate(-225.076 -235.944)" fill="#444053"/>
    <path id="Path_174" data-name="Path 174" d="M397.951,647.54,396.389,684.3s-2.34,7.506-1.071,9.653,3.411,4.288,2.633,5.558-10.139,14.994-13.163,9.729-6.008-28.081-6.008-28.081l2.791-28.181Z" transform="translate(-212.897 -300.903)" opacity="0.1"/>
    <path id="Path_175" data-name="Path 175" d="M416.905,491l4.341,5.8V547.28s1.27,13.456,0,16.235-7.7,8.337-7.7,8.337l-5.411-27.789,1.17-29.4Z" transform="translate(-225.076 -235.944)" opacity="0.1"/>
    <path id="Path_176" data-name="Path 176" d="M387.58,444.241v27.3L382.707,492.8s-1.562,51.289-.2,57.526-4.68,12.093-4.68,12.093-3.51.392-3.51,3.118-5.85,10.531-5.85,10.531l.193,15.211s2.539,28.473-1.363,33.932,1.363,6.242,1.363,6.242c-4.873,15.989-28.274,12.286-30.386,10.531s0-36.272,0-36.272,5.23-52.653,9.325-54.993.2-5.265,1.562-8.775-1.363-13.064-1.363-13.064-1.17-11.314-4.1-16.773-2.539-20.476-2.539-20.476-8.19-10.922-10.624-15.211-4-15.4-3.417-23.793c.4-5.669,3.376-13.924,5.265-18.674.907-2.276,1.562-3.75,1.562-3.75l.556.146,31.954,8.366Z" transform="translate(-191.41 -210.713)" fill="#444053"/>
    <path id="Path_177" data-name="Path 177" d="M415.031,219.987c-3.019.866-5.9,3.838-8.413,7.447h-.655a20.9,20.9,0,0,1-18.136-10.49,20.582,20.582,0,0,1-1.837-4.183c1.808-4.592,3.147-8.582,3.147-8.582S424.245,217.355,415.031,219.987Z" transform="translate(-215.889 -116.922)" opacity="0.1"/>
    <path id="Path_178" data-name="Path 178" d="M426.209,191.354a20.915,20.915,0,1,1-39.127-10.25,20.435,20.435,0,0,1,2.211-3.194,21.166,21.166,0,0,1,4.809-4.224,20.915,20.915,0,0,1,32.077,16.135C426.192,190.336,426.209,190.845,426.209,191.354Z" transform="translate(-215.221 -102.913)" fill="#efb7b9"/>
    <path id="Path_179" data-name="Path 179" d="M403.689,266.326l-.07.644-9.729-15.211c-1.018,2.4-1.585,4.013-1.585,4.013s-23.109-17.4-19.452-18.569c1.229-.392,2.843-3.025,4.44-6.342l.2-.421c1.7,5.055,11.554,15.158,15.655,19.206.474.468.866.854,1.17,1.135l.626.585.328.328C396.762,253.233,403.057,260.019,403.689,266.326Z" transform="translate(-210.274 -127.819)" opacity="0.1"/>
    <path id="Path_180" data-name="Path 180" d="M389.393,317.816l-1.065,34.265-.187,6.1s-12.613-1.17-24.384-2.457c-9.477-1.035-18.411-2.153-19.786-2.808-1.755-.825-5.517-1.463-8.483-1.866-2.293-.31-4.1-.474-4.1-.474s-.673.2-1.708.386c-2.258.41-6.225.743-8.536-1.264-2.954-2.568,4.809-11.9,6.745-14.14l.427-.486-.731-6.757-1.9-17.522s-1.17-10.092-2.925-15.5a28.6,28.6,0,0,1-1.012-4.709,37.723,37.723,0,0,1,.983-14.778,32.231,32.231,0,0,0,1.053-6.254c.292-5.412,16.82-26.326,20.915-28.228a8.682,8.682,0,0,0,4.189-4.177,7.975,7.975,0,0,0,.638-1.819c1.755-7.605,6.2-4.587,6.2-4.587,1.071,5.95,17.644,21.7,17.644,21.7l.328.328c1.644,1.685,8.968,9.594,8.448,16.346a19.816,19.816,0,0,0,1.106,7.395,125.05,125.05,0,0,1,5.763,32.762Z" transform="translate(-188.707 -127.698)" fill="#dce6f2"/>
    <path id="Path_181" data-name="Path 181" d="M392.681,310.45s-4.1,9.945-7.167,11.554S394.143,325.4,392.681,310.45Z" transform="translate(-215.477 -161.021)" opacity="0.1"/>
    <path id="Path_182" data-name="Path 182" d="M396.74,342.2s-9.36,1.17-9.36,2.925S396.74,342.2,396.74,342.2Z" transform="translate(-216.466 -174.196)" opacity="0.1"/>
    <path id="Path_183" data-name="Path 183" d="M407.461,361.7s-13.6,28.959-17.4,29.836S407.461,361.7,407.461,361.7Z" transform="translate(-217.387 -182.288)" opacity="0.1"/>
    <path id="Path_184" data-name="Path 184" d="M392.829,254.717l-11.25,4.891L368,239.1a7.983,7.983,0,0,0,.638-1.819c1.755-7.605,6.2-4.587,6.2-4.587,1.071,5.95,17.644,21.7,17.644,21.7Z" transform="translate(-208.423 -128.507)" opacity="0.1"/>
    <path id="Path_185" data-name="Path 185" d="M393.829,252.717l-11.25,4.891L369,237.1a7.982,7.982,0,0,0,.638-1.819c1.755-7.605,6.2-4.587,6.2-4.587,1.071,5.95,17.644,21.7,17.644,21.7Z" transform="translate(-208.838 -127.677)" fill="#dce6f2"/>
    <path id="Path_186" data-name="Path 186" d="M392.453,383.78s-12.613-1.17-24.384-2.457l21.12,5.529v6.435c-.924.837-1.726,1.27-2.246,1.047-2.434-1.024-22.3-4.241-22.3-4.241s-11.537-5.85-23.986-12.871a9.62,9.62,0,0,1-.878-.55,13.83,13.83,0,0,1-3.686-3.692c-2.3-3.329-3.422-7.605-3.908-11.8a51.026,51.026,0,0,1-.3-7.243,59.38,59.38,0,0,1,.749-8.185,269.133,269.133,0,0,1-1.755-31.592c.146-16.381,15.5-22.231,15.5-22.231,28.228-2.486,19.476,43.146,19.476,43.146s-1.632,12.871-2.077,14.187-2.042,3.51-1.825,6.582,5.61,6.745,5.61,6.745,5.265,2.469,7.436,6.125c1.58,2.7,11.841,6.353,17.639,8.963Z" transform="translate(-193.019 -153.295)" opacity="0.1"/>
    <path id="Path_187" data-name="Path 187" d="M424.08,176.435a6.623,6.623,0,0,1-.585,2.8,17.287,17.287,0,0,1-1.041,2.083,9.594,9.594,0,0,1-2.562,3.183,13.108,13.108,0,0,1-4.68,1.626,6.773,6.773,0,0,0-4.23,2.4,8.39,8.39,0,0,0-.989,2.867,6.166,6.166,0,0,1-1.17,2.773,2.3,2.3,0,0,1-2.738.655,2.767,2.767,0,0,1-1.059-1.363,19.55,19.55,0,0,1-1.106-4.791,10.193,10.193,0,0,0-1.644-4.592,4.113,4.113,0,0,0-4.318-1.656,4.159,4.159,0,0,0-2.34,2.27,13.011,13.011,0,0,0-.883,3.229q-1.088,5.956-2.568,11.841a1.087,1.087,0,0,1-.193.445.843.843,0,0,1-.585.246c-1.311.176-2.568-.743-3.89-.644a2.234,2.234,0,0,0-.4.064A20.9,20.9,0,0,1,389.206,176l.105-.029a6.306,6.306,0,0,0,2.34-1.474,24.69,24.69,0,0,0,2.34-2.709l.468-.585a26.684,26.684,0,0,1,4.563-4.335,4.68,4.68,0,0,1,1.556-.842,4.61,4.61,0,0,1,1.474-.047,37.189,37.189,0,0,0,6.09.228,39.067,39.067,0,0,1,4.277-.433c3.7.105,6.862,2.72,9.2,5.587A8.654,8.654,0,0,1,424.08,176.435Z" transform="translate(-215.191 -100.983)" opacity="0.1"/>
    <path id="Path_188" data-name="Path 188" d="M380.048,179.326c-.813,1.334-2.282,2.241-2.832,3.7-.807,2.124.556,4.768-.7,6.663-.415.638-1.1,1.112-1.334,1.843-.4,1.234.69,2.551.41,3.82s-1.954,2.34-1.509,3.58a2.34,2.34,0,0,0,1.287,1.17,5.031,5.031,0,0,0,2.925.649c1.6-.263,2.785-1.831,4.405-1.948,1.316-.094,2.574.819,3.885.649a.877.877,0,0,0,.585-.252,1.012,1.012,0,0,0,.193-.445q1.474-5.88,2.574-11.841a12.757,12.757,0,0,1,.878-3.229,4.194,4.194,0,0,1,2.34-2.27,4.126,4.126,0,0,1,4.318,1.656,10.133,10.133,0,0,1,1.65,4.592,19.812,19.812,0,0,0,1.1,4.791,2.8,2.8,0,0,0,1.065,1.369,2.291,2.291,0,0,0,2.732-.655,6.1,6.1,0,0,0,1.17-2.779,8.354,8.354,0,0,1,.989-2.861,6.788,6.788,0,0,1,4.23-2.4,13.237,13.237,0,0,0,4.68-1.632,9.629,9.629,0,0,0,2.562-3.177,9.352,9.352,0,0,0,1.6-4.885,8.967,8.967,0,0,0-2.4-5.061c-2.34-2.867-5.505-5.482-9.208-5.581a36.393,36.393,0,0,0-4.277.433,36.608,36.608,0,0,1-6.09-.234,4.786,4.786,0,0,0-1.474.053,4.411,4.411,0,0,0-1.55.842,26.694,26.694,0,0,0-4.569,4.329,33.536,33.536,0,0,1-2.82,3.276,6.347,6.347,0,0,1-2.34,1.48c-.585.164-1.17.047-1.726.228C381.078,175.752,380.85,178,380.048,179.326Z" transform="translate(-210.918 -100.58)" fill="#965d7b"/>
    <path id="Path_189" data-name="Path 189" d="M471.762,210.911c-4.68.86-8.559-2.925-10.706-5.686a22.945,22.945,0,0,1-1.8-2.644l16.065,3.03.649.123S478.929,209.6,471.762,210.911Z" transform="translate(-246.294 -116.258)" opacity="0.1"/>
    <g id="Group_275" data-name="Group 275" transform="translate(163.065 74.282)" opacity="0.1">
      <path id="Path_190" data-name="Path 190" d="M376.366,212.577a4.872,4.872,0,0,0-.339-2.247c0,.059-.053.117-.07.176a4.354,4.354,0,0,0,.3,2.41A1.751,1.751,0,0,0,376.366,212.577Z" transform="translate(-374.754 -193.756)"/>
      <path id="Path_191" data-name="Path 191" d="M379.075,197.8a13.006,13.006,0,0,0,.047,2.428A13.038,13.038,0,0,0,379.075,197.8Z" transform="translate(-376.07 -188.557)"/>
      <path id="Path_192" data-name="Path 192" d="M417.6,185.773a9.6,9.6,0,0,1-2.562,3.183,13.069,13.069,0,0,1-4.68,1.626,6.757,6.757,0,0,0-4.23,2.4,8.43,8.43,0,0,0-.989,2.867,6.125,6.125,0,0,1-1.17,2.779,2.283,2.283,0,0,1-2.732.655,2.8,2.8,0,0,1-1.065-1.369,19.477,19.477,0,0,1-1.1-4.791,10.108,10.108,0,0,0-1.65-4.592,4.113,4.113,0,0,0-4.318-1.656,4.177,4.177,0,0,0-2.34,2.27,12.753,12.753,0,0,0-.878,3.229q-1.094,5.961-2.574,11.841a1.012,1.012,0,0,1-.193.445.878.878,0,0,1-.585.252c-1.31.17-2.568-.743-3.885-.649-1.621.117-2.808,1.685-4.405,1.942a4.944,4.944,0,0,1-2.925-.649,3.129,3.129,0,0,1-1.071-.761,1.58,1.58,0,0,0-.216,1.363,2.281,2.281,0,0,0,1.287,1.17,4.944,4.944,0,0,0,2.925.649c1.6-.257,2.785-1.825,4.405-1.942,1.316-.094,2.574.819,3.885.649a.878.878,0,0,0,.585-.252,1.013,1.013,0,0,0,.193-.445q1.474-5.85,2.574-11.841a12.754,12.754,0,0,1,.878-3.229,4.177,4.177,0,0,1,2.34-2.27,4.116,4.116,0,0,1,4.318,1.656,10.133,10.133,0,0,1,1.65,4.592,19.809,19.809,0,0,0,1.1,4.791,2.8,2.8,0,0,0,1.065,1.369,2.291,2.291,0,0,0,2.732-.655,6.125,6.125,0,0,0,1.17-2.779,8.429,8.429,0,0,1,.989-2.867,6.815,6.815,0,0,1,4.23-2.4,13.343,13.343,0,0,0,4.68-1.626,9.593,9.593,0,0,0,2.562-3.183,9.315,9.315,0,0,0,1.6-4.879,6.283,6.283,0,0,0-.07-.667A11.5,11.5,0,0,1,417.6,185.773Z" transform="translate(-373.964 -182)"/>
    </g>
    <path id="Path_193" data-name="Path 193" d="M425.452,181.148a20.669,20.669,0,0,1,2.6,8.688c-5.213-2.925-10.115-6.137-12.59-7.254-4.312-1.948-20.435-1.656-26.5-1.474a20.439,20.439,0,0,1,2.211-3.194,21.166,21.166,0,0,1,4.826-4.224,20.926,20.926,0,0,1,29.474,7.447Z" transform="translate(-217.125 -102.917)" opacity="0.1"/>
    <path id="Path_194" data-name="Path 194" d="M473.225,208.43c-2.814.866-7.406-.807-12.169-3.206a22.945,22.945,0,0,1-1.8-2.644l16.065,3.03C476.39,206.336,476.659,207.371,473.225,208.43Z" transform="translate(-246.294 -116.258)" opacity="0.1"/>
    <path id="Path_195" data-name="Path 195" d="M406.815,154.061s-15.357-.878-19.674,7.459l-.7,7.389-1.17-.129-.234,5.025s23.471-1.024,28.813,1.387,21.939,14.556,28.59,12.508-.585-3.949-.585-3.949-9.156-3.879-9.156-6.921S430.432,157.718,406.815,154.061Z" transform="translate(-215.495 -96.113)" fill="#444053"/>
    <path id="Path_196" data-name="Path 196" d="M371.63,622.28s9.8,9.507,14.041,8.775C385.671,631.055,373.678,630.032,371.63,622.28Z" transform="translate(-209.93 -290.421)" opacity="0.1"/>
    <path id="Path_197" data-name="Path 197" d="M368.13,629.81s.878,4.891,3.218,4.411S368.13,629.81,368.13,629.81Z" transform="translate(-208.477 -293.546)" opacity="0.1"/>
    <path id="Path_198" data-name="Path 198" d="M385.987,769.53s-13.912,10.823-11.566,11.115S385.987,769.53,385.987,769.53Z" transform="translate(-210.977 -351.526)" opacity="0.1"/>
    <path id="Path_199" data-name="Path 199" d="M330.96,342.13l45.047-7.33v42.649l-42.8-2.241Z" transform="translate(-137.341 -138.931)" fill="#244087"/>
    <path id="Path_200" data-name="Path 200" d="M330.96,342.13l45.047-7.33v42.649l-42.8-2.241Z" transform="translate(-137.341 -138.931)" opacity="0.05"/>
    <path id="Path_201" data-name="Path 201" d="M407.96,334.8l54.022,4.043-2.99,37.114-51.032,1.492Z" transform="translate(-169.293 -138.931)" fill="#244087"/>
    <path id="Path_202" data-name="Path 202" d="M407.96,334.8l54.022,4.043-2.99,37.114-51.032,1.492Z" transform="translate(-169.293 -138.931)" opacity="0.1"/>
    <path id="Path_203" data-name="Path 203" d="M424.569,312.55,407.96,325.567l54.022,4.043,8.828-13.321Z" transform="translate(-169.293 -129.698)" fill="#244087"/>
    <path id="Path_204" data-name="Path 204" d="M303.08,319.528l40.554-4.938,20.8,11.823-45.047,7.33Z" transform="translate(-125.771 -130.544)" fill="#244087"/>
    <path id="Path_205" data-name="Path 205" d="M385.882,351.074v58.31l-21.1-2.165-9.179-.936-2.8-.293-9.173-.942-12.672-1.3V347.33L376,350.4Z" transform="translate(-137.341 -144.131)" fill="#244087"/>
    <path id="Path_206" data-name="Path 206" d="M468.986,341.71v56.865l-16.913,3.247-8.226,1.58-19.008,3.651v-58.31Z" transform="translate(-176.298 -141.798)" fill="#244087"/>
    <path id="Path_207" data-name="Path 207" d="M468.986,341.71v56.865l-16.913,3.247-8.226,1.58-19.008,3.651v-58.31Z" transform="translate(-176.298 -141.798)" opacity="0.05"/>
    <path id="Path_208" data-name="Path 208" d="M303.08,359.6l16.311-12.274,54.923,3.744-8.085,13.619Z" transform="translate(-125.771 -144.131)" fill="#244087"/>
    <path id="Path_209" data-name="Path 209" d="M303.08,359.6l16.311-12.274,54.923,3.744-8.085,13.619Z" transform="translate(-125.771 -144.131)" fill="#fff" opacity="0.1"/>
    <path id="Path_210" data-name="Path 210" d="M468.986,341.71l-44.146,7.032,14.368,12.871L486.5,353.68Z" transform="translate(-176.298 -141.798)" fill="#244087"/>
    <path id="Path_211" data-name="Path 211" d="M468.986,341.71l-44.146,7.032,14.368,12.871L486.5,353.68Z" transform="translate(-176.298 -141.798)" fill="#fff" opacity="0.1"/>
    <path id="Path_212" data-name="Path 212" d="M465.556,435.584l-8.226,1.58V425.012l7.7-1.942Z" transform="translate(-189.781 -175.561)" fill="#fff" opacity="0.1"/>
    <path id="Path_213" data-name="Path 213" d="M382.259,435.96V444l-9.179-.936v-7.1Z" transform="translate(-154.819 -180.909)" fill="#fff" opacity="0.1"/>
    <path id="Path_214" data-name="Path 214" d="M361.793,440.29v4.277l-9.173-.942V440.29Z" transform="translate(-146.329 -182.706)" fill="#fff" opacity="0.1"/>
    <path id="Path_215" data-name="Path 215" d="M479.005,467.1c-6.289,8.044-27.058,2.486-27.058,2.486l-15.433-16.1-2.094-2.182,4.1-7.605s1.17.386,3.124,1.065C451.983,448.38,484.3,460.332,479.005,467.1Z" transform="translate(-235.986 -216.316)" opacity="0.1"/>
    <path id="Path_216" data-name="Path 216" d="M478.005,465.1c-6.289,8.044-27.058,2.486-27.058,2.486l-15.433-16.1-2.094-2.182,4.1-7.605s1.17.386,3.124,1.065C450.983,446.38,483.3,458.332,478.005,465.1Z" transform="translate(-235.571 -215.486)" fill="#efb7b9"/>
    <path id="Path_217" data-name="Path 217" d="M440.6,442.765a34.587,34.587,0,0,1-5.125,8.723l-2.094-2.182,4.1-7.605S438.651,442.086,440.6,442.765Z" transform="translate(-235.554 -215.486)" opacity="0.1"/>
    <path id="Path_218" data-name="Path 218" d="M347.382,287.929s-15.357,5.85-15.5,22.231a269.149,269.149,0,0,0,1.755,31.592s-4.388,24.425,8.044,31.445,23.986,12.871,23.986,12.871,19.862,3.218,22.3,4.241,10.917-12.139,9.6-14.333-19.4-7.605-21.547-11.262-7.436-6.119-7.436-6.119-5.394-3.68-5.61-6.751,1.375-5.265,1.825-6.582,2.083-14.187,2.083-14.187S375.61,285.413,347.382,287.929Z" transform="translate(-193.434 -151.633)" fill="#dce6f2"/>
    <path id="Path_219" data-name="Path 219" d="M356.727,380.7s-20.769,2.34-19.16,9.653A43.692,43.692,0,0,1,356.727,380.7Z" transform="translate(-195.758 -190.172)" opacity="0.1"/>
    <path id="Path_220" data-name="Path 220" d="M363.365,385.7s-11.788,8.629-9.624,9.214S363.365,385.7,363.365,385.7Z" transform="translate(-202.396 -192.247)" opacity="0.1"/>
    <path id="Path_221" data-name="Path 221" d="M377.93,391.7s-3.364,6.049-1.463,5.733S377.93,391.7,377.93,391.7Z" transform="translate(-211.695 -194.737)" opacity="0.1"/>
    <path id="Path_222" data-name="Path 222" d="M734.924,167.4s-22.231-1.34-19.633,14.257a3.8,3.8,0,0,0,1.977,4.007s.041-1.17,2.282-.766a10.245,10.245,0,0,0,2.416.117,5.013,5.013,0,0,0,2.96-1.223h0s6.254-2.58,8.688-12.806c0,0,1.8-2.235,1.755-2.808l-3.756,1.609s1.281,2.709.269,4.961c0,0-.117-4.862-.842-4.75-.146,0-1.948.942-1.948.942s2.206,4.715.538,8.149c0,0,.632-5.815-1.229-7.81l-2.644,1.544s2.58,4.873.831,8.851c0,0,.451-6.1-1.386-8.477l-2.4,1.866s2.428,4.809.948,8.109c0,0-.193-7.1-1.468-7.64a14.469,14.469,0,0,0-2.41,2.609s1.656,3.51.626,5.33c0,0-.632-4.733-1.17-4.756,0,0-2.089,3.136-2.3,5.265a11.384,11.384,0,0,1,1.8-5.581,6.266,6.266,0,0,0-3.194,1.656s.322-2.217,3.709-2.41a16.008,16.008,0,0,1,2.188-2.527,13.718,13.718,0,0,0-5.411.626s1.8-2.089,6.032-1.17l2.34-1.931s-4.435-.585-6.318.064c0,0,2.165-1.849,6.956-.5l2.574-1.539a23.112,23.112,0,0,0-6.032-.521s2.375-1.281,6.786.105l1.843-.825s-2.773-.544-3.58-.632-.854-.31-.854-.31a9.571,9.571,0,0,1,5.2.585S735.006,167.645,734.924,167.4Z" transform="translate(-352.451 -101.647)" fill="#244087"/>
    <path id="Path_223" data-name="Path 223" d="M850.384,300.74S828.153,299.4,830.75,315A3.8,3.8,0,0,0,832.728,319s.041-1.17,2.287-.766a10.241,10.241,0,0,0,2.416.117,5.007,5.007,0,0,0,2.925-1.217h0s6.26-2.586,8.693-12.812c0,0,1.8-2.229,1.726-2.8l-3.756,1.6s1.281,2.709.275,4.961c0,0-.123-4.862-.843-4.75-.146,0-1.954.942-1.954.942s2.211,4.721.544,8.149c0,0,.632-5.815-1.234-7.81l-2.615,1.527s2.58,4.873.831,8.851c0,0,.45-6.1-1.386-8.477l-2.393,1.872s2.422,4.8.948,8.1c0,0-.193-7.1-1.468-7.641a14.672,14.672,0,0,0-2.416,2.609s1.662,3.51.632,5.33c0,0-.632-4.733-1.17-4.756,0,0-2.089,3.136-2.305,5.265a11.421,11.421,0,0,1,1.8-5.581,6.3,6.3,0,0,0-3.2,1.656s.328-2.217,3.715-2.41a14.6,14.6,0,0,1,2.188-2.527,13.718,13.718,0,0,0-5.412.626s1.8-2.089,6.026-1.141l2.34-1.931s-4.44-.585-6.318.064c0,0,2.165-1.849,6.956-.5l2.574-1.539a23.443,23.443,0,0,0-6.037-.521s2.381-1.281,6.792.105l1.843-.825s-2.773-.544-3.586-.632-.854-.31-.854-.31a9.59,9.59,0,0,1,5.207.585S850.454,300.985,850.384,300.74Z" transform="translate(-400.364 -156.979)" fill="#244087" opacity="0.1"/>
    <path id="Path_224" data-name="Path 224" d="M622.847,261.493s5.119-21.7-10.7-21.775a3.8,3.8,0,0,0-4.282,1.264s1.129.24.363,2.381a10.416,10.416,0,0,0-.527,2.34,5.026,5.026,0,0,0,.7,3.118h0s1.48,6.611,11.116,10.753c0,0,1.9,2.153,2.469,2.176l-.936-3.972s-2.89.8-4.938-.585c0,0,4.815.708,4.821,0,0-.146-.585-2.083-.585-2.083s-5.025,1.369-8.126-.86c0,0,5.622,1.615,7.91.123l-1.053-2.878s-5.265,1.714-8.869-.69c0,0,5.938,1.486,8.594.082l-1.433-2.679s-5.148,1.568-8.149-.45c0,0,7.02,1.018,7.781-.14a14.536,14.536,0,0,0-2.159-2.826s-3.721,1.041-5.359-.287c0,0,4.768.181,4.879-.322,0,0-2.732-2.592-4.815-3.177a11.466,11.466,0,0,1,5.2,2.726,6.312,6.312,0,0,0-1.088-3.434s2.129.7,1.755,4.1a14.569,14.569,0,0,1,2.112,2.586,13.758,13.758,0,0,0,.3-5.441s1.755,2.13.1,6.137l1.5,2.662s1.357-4.271,1.012-6.236c0,0,1.457,2.445-.69,6.938l1.082,2.8a23.425,23.425,0,0,0,1.539-5.85s.86,2.562-1.264,6.675l.5,1.954s1.006-2.638,1.229-3.422.45-.79.45-.79a9.583,9.583,0,0,1-1.457,5.031S622.6,261.522,622.847,261.493Z" transform="translate(-307.881 -131.58)" fill="#244087" opacity="0.1"/>
    <path id="Path_225" data-name="Path 225" d="M532.449,285.744s-17.855-13.356-24.238,1.112a3.807,3.807,0,0,0-.55,4.435s.667-.942,2.34.62a10.246,10.246,0,0,0,1.954,1.427,5.02,5.02,0,0,0,3.142.585h0s6.646,1.281,14.3-5.92c0,0,2.732-.878,2.99-1.392l-4.031-.708s-.421,2.966-2.5,4.294c0,0,2.568-4.13,1.9-4.429-.135-.064-2.147-.293-2.147-.293s-.749,5.16-4.025,7.108c0,0,3.727-4.511,3.265-7.2l-3.06-.164s-.521,5.493-4.171,7.857c0,0,3.727-4.85,3.51-7.845l-3.03.246s-.614,5.341-3.662,7.284c0,0,3.738-6.038,2.972-7.184a14.705,14.705,0,0,0-3.452.848s-.532,3.826-2.4,4.8c0,0,2.077-4.3,1.656-4.6,0,0-3.469,1.468-4.832,3.142a11.425,11.425,0,0,1,4.575-3.674,6.3,6.3,0,0,0-3.58-.374s1.486-1.673,4.423.029a14.77,14.77,0,0,1,3.218-.907,13.69,13.69,0,0,0-4.867-2.451s2.656-.761,5.669,2.34l3.036-.31s-3.376-2.925-5.312-3.417c0,0,2.826-.357,6.084,3.4l3,.135a23.354,23.354,0,0,0-4.75-3.756s2.685.234,5.61,3.82l1.995.322s-2.018-1.977-2.65-2.492-.544-.731-.544-.731a9.612,9.612,0,0,1,4.031,3.346S532.373,285.984,532.449,285.744Z" transform="translate(-266.169 -148.436)" fill="#244087" opacity="0.1"/>
    <path id="Path_226" data-name="Path 226" d="M634.059,73.632S616.2,60.27,609.822,74.743a3.807,3.807,0,0,0-.55,4.435s.667-.942,2.34.62a10.409,10.409,0,0,0,1.96,1.422,5.014,5.014,0,0,0,3.142.585h0s6.646,1.281,14.3-5.926c0,0,2.732-.872,2.984-1.392l-4.031-.7s-.415,2.966-2.5,4.294c0,0,2.574-4.13,1.907-4.429-.135-.064-2.147-.293-2.147-.293s-.772,5.172-4.048,7.108c0,0,3.721-4.511,3.264-7.2l-3.06-.164s-.527,5.493-4.171,7.851c0,0,3.727-4.85,3.51-7.845l-3.025.246s-.62,5.347-3.668,7.289c0,0,3.744-6.037,2.978-7.184a14.706,14.706,0,0,0-3.452.848s-.532,3.826-2.4,4.8c0,0,2.077-4.3,1.656-4.6,0,0-3.469,1.474-4.832,3.147a11.373,11.373,0,0,1,4.575-3.674,6.26,6.26,0,0,0-3.586-.374s1.492-1.673,4.429.029a14.449,14.449,0,0,1,3.218-.907,13.767,13.767,0,0,0-4.867-2.457s2.65-.755,5.663,2.34l3.036-.31s-3.37-2.925-5.312-3.422c0,0,2.826-.351,6.09,3.4l3,.129a23.114,23.114,0,0,0-4.756-3.75s2.691.234,5.616,3.82l1.989.322s-2.024-1.954-2.656-2.457-.544-.725-.544-.725a9.594,9.594,0,0,1,4.031,3.346S633.96,73.854,634.059,73.632Z" transform="translate(-308.335 -60.415)" fill="#244087" opacity="0.1"/>
    <path id="Path_227" data-name="Path 227" d="M751.9,96.083s-7.137-21.125-20.6-12.824A3.845,3.845,0,0,0,728.34,86.6s1.082-.4,1.562,1.825a10.534,10.534,0,0,0,.8,2.287,5.067,5.067,0,0,0,2.247,2.276h0s4.75,4.826,15.141,3.229c0,0,2.744.831,3.247.544l-2.925-2.872s-2.024,2.206-4.493,2.118c0,0,4.464-1.942,4.1-2.568-.076-.123-1.6-1.451-1.6-1.451s-3.545,3.82-7.348,3.569c0,0,5.622-1.6,6.769-4.1l-2.422-1.866s-3.545,4.224-7.892,4.1c0,0,5.85-1.878,7.33-4.475L740.216,87.7s-3.51,4.054-7.149,3.926c0,0,6.506-2.849,6.523-4.23a14.626,14.626,0,0,0-3.323-1.258s-2.609,2.849-4.68,2.592c0,0,4.142-2.369,3.966-2.855,0,0-3.686-.755-5.763-.146a11.4,11.4,0,0,1,5.85-.439,6.312,6.312,0,0,0-2.744-2.34s2.176-.532,3.633,2.533a14.733,14.733,0,0,1,3.159,1.076,13.749,13.749,0,0,0-2.615-4.78s2.615.883,3.329,5.16l2.679,1.463s-1.106-4.335-2.439-5.85c0,0,2.533,1.31,3.083,6.254l2.4,1.808a23.257,23.257,0,0,0-1.79-5.792s2.083,1.72,2.457,6.336l1.457,1.392s-.538-2.773-.761-3.557-.041-.837-.041-.837a9.646,9.646,0,0,1,1.422,5.043S751.7,96.235,751.9,96.083Z" transform="translate(-357.954 -65.941)" fill="#244087" opacity="0.1"/>
    <path id="Path_228" data-name="Path 228" d="M674.5,108.23s-22.173-2.469-20.342,13.263a3.8,3.8,0,0,0,1.755,4.1s.1-1.17,2.34-.644a10.764,10.764,0,0,0,2.41.24,5.031,5.031,0,0,0,3.013-1.071h0s6.383-2.264,9.36-12.356c0,0,1.907-2.135,1.866-2.715l-3.832,1.416s1.17,2.767,0,4.967c0,0,.123-4.862-.585-4.786-.146,0-1.995.842-1.995.842s1.966,4.826.129,8.19c0,0,.924-5.78-.837-7.863l-2.72,1.4s2.34,5,.38,8.887c0,0,.76-6.073-.953-8.536L662,115.321s2.176,4.92.532,8.144c0,0,.17-7.1-1.077-7.7a15.218,15.218,0,0,0-2.545,2.481s1.48,3.569.363,5.353c0,0-.392-4.756-.907-4.8,0,0-2.247,3.025-2.574,5.16a11.391,11.391,0,0,1,2.083-5.488,6.3,6.3,0,0,0-3.276,1.492s.433-2.194,3.826-2.217c0,0,1.843-2.287,2.34-2.41a13.755,13.755,0,0,0-5.441.351s1.9-2,6.078-.837l2.463-1.808s-4.452-.9-6.336-.316c0,0,2.258-1.755,6.974-.146l2.65-1.41a23.293,23.293,0,0,0-6-.825s2.439-1.17,6.775.45l1.884-.731s-2.744-.684-3.551-.813-.837-.351-.837-.351a9.624,9.624,0,0,1,5.172.842S674.536,108.476,674.5,108.23Z" transform="translate(-327.124 -77.047)" fill="#244087" opacity="0.1"/>
    <path id="Path_229" data-name="Path 229" d="M1006.1,402.4s-22.161-2.469-20.33,13.245a3.8,3.8,0,0,0,1.755,4.1s.1-1.17,2.34-.649a10.123,10.123,0,0,0,2.41.24,4.991,4.991,0,0,0,3.013-1.071h0s6.383-2.264,9.331-12.35c0,0,1.907-2.141,1.866-2.715l-3.832,1.41s1.17,2.773,0,4.973c0,0,.123-4.867-.585-4.786-.146,0-1.995.837-1.995.837s1.966,4.826.129,8.19c0,0,.924-5.774-.837-7.863l-2.72,1.41s2.34,5,.386,8.887c0,0,.755-6.073-.959-8.541l-2.486,1.755s2.176,4.92.532,8.138c0,0,.17-7.1-1.077-7.7a15.446,15.446,0,0,0-2.545,2.48s1.486,3.569.363,5.353c0,0-.392-4.756-.907-4.8,0,0-2.246,3.025-2.574,5.16a11.391,11.391,0,0,1,2.083-5.488,6.242,6.242,0,0,0-3.276,1.492s.433-2.2,3.826-2.223c0,0,1.849-2.288,2.34-2.4a13.707,13.707,0,0,0-5.441.345s1.9-1.995,6.084-.831l2.457-1.808s-4.4-.831-6.312-.257c0,0,2.258-1.755,6.974-.152l2.65-1.4a23.293,23.293,0,0,0-6-.825s2.44-1.17,6.775.451l1.884-.737s-2.744-.684-3.551-.807-.837-.351-.837-.351a9.589,9.589,0,0,1,5.172.837S1006.162,402.651,1006.1,402.4Z" transform="translate(-464.737 -199.119)" fill="#244087" opacity="0.1"/>
    <path id="Path_230" data-name="Path 230" d="M1064.013,437.78s-22.161-2.463-20.33,13.245a3.808,3.808,0,0,0,1.755,4.1s.1-1.17,2.34-.644a10.324,10.324,0,0,0,2.4.234,5.054,5.054,0,0,0,3-1.065h0s6.377-2.264,9.325-12.356c0,0,1.913-2.135,1.866-2.714l-3.832,1.41s1.17,2.773,0,4.973c0,0,.123-4.862-.585-4.786-.146,0-1.995.837-1.995.837s1.966,4.826.129,8.19c0,0,.924-5.774-.837-7.857l-2.72,1.4s2.34,5,.386,8.887c0,0,.755-6.073-.959-8.536l-2.486,1.755s2.176,4.92.538,8.144c0,0,.164-7.108-1.082-7.7a15.444,15.444,0,0,0-2.545,2.481s1.486,3.569.363,5.353c0,0-.392-4.756-.907-4.8,0,0-2.247,3.025-2.568,5.16a11.419,11.419,0,0,1,2.077-5.488,6.294,6.294,0,0,0-3.276,1.492s.439-2.2,3.832-2.217c0,0,1.843-2.287,2.34-2.41a13.755,13.755,0,0,0-5.441.351s1.9-2,6.084-.837l2.457-1.808s-4.4-.831-6.312-.257c0,0,2.258-1.755,6.974-.146l2.65-1.41a23.3,23.3,0,0,0-6-.825s2.44-1.17,6.775.45l1.884-.731s-2.744-.684-3.545-.813-.843-.351-.843-.351a9.624,9.624,0,0,1,5.172.842S1064.072,438.032,1064.013,437.78Z" transform="translate(-488.768 -213.801)" fill="#244087" opacity="0.1"/>
    <path id="Path_231" data-name="Path 231" d="M932,135.884S914.144,122.527,907.762,137a3.807,3.807,0,0,0-.55,4.435s.667-.942,2.34.62a10.244,10.244,0,0,0,1.954,1.427,5.026,5.026,0,0,0,3.142.585h0s6.646,1.281,14.3-5.921c0,0,2.726-.878,2.984-1.392l-4.019-.725s-.421,2.966-2.5,4.294c0,0,2.568-4.13,1.9-4.429-.135-.064-2.141-.292-2.141-.292s-.755,5.16-4.031,7.108c0,0,3.727-4.511,3.265-7.2l-3.06-.164s-.521,5.493-4.171,7.857c0,0,3.733-4.85,3.51-7.845l-3.03.246s-.585,5.341-3.662,7.284c0,0,3.744-6.038,2.972-7.184a14.706,14.706,0,0,0-3.452.848s-.527,3.826-2.4,4.8c0,0,2.071-4.3,1.65-4.6,0,0-3.469,1.468-4.832,3.142a11.427,11.427,0,0,1,4.575-3.674,6.3,6.3,0,0,0-3.58-.374s1.492-1.673,4.429.029a14.707,14.707,0,0,1,3.212-.907,13.691,13.691,0,0,0-4.867-2.451s2.656-.761,5.669,2.34l3.036-.31s-3.37-2.925-5.312-3.417c0,0,2.826-.357,6.084,3.4l3,.135a23.456,23.456,0,0,0-4.756-3.756s2.691.234,5.61,3.82l1.995.322s-2.018-1.977-2.65-2.492-.538-.684-.538-.684a9.619,9.619,0,0,1,4.025,3.346S931.923,136.124,932,135.884Z" transform="translate(-431.971 -86.248)" fill="#244087" opacity="0.1"/>
    <path id="Path_232" data-name="Path 232" d="M957.124,293.764s-6.155-21.43-20-13.736a3.8,3.8,0,0,0-3.118,3.2s1.1-.345,1.48,1.9a10.369,10.369,0,0,0,.7,2.34,5.026,5.026,0,0,0,2.141,2.387h0s4.528,5.031,14.977,3.908c0,0,2.7.948,3.218.69l-2.767-3.007s-2.124,2.118-4.581,1.919c0,0,4.54-1.755,4.189-2.381-.07-.129-1.533-1.527-1.533-1.527s-3.709,3.662-7.5,3.235c0,0,5.692-1.346,6.944-3.768l-2.34-1.977s-3.732,4.06-8.068,3.744c0,0,5.9-1.621,7.523-4.142l-2.562-1.632s-3.715,3.89-7.319,3.6c0,0,6.628-2.557,6.71-3.931a14.6,14.6,0,0,0-3.27-1.4s-2.732,2.726-4.809,2.375c0,0,4.247-2.182,4.1-2.674,0,0-3.651-.919-5.751-.409a11.414,11.414,0,0,1,5.85-.17,6.277,6.277,0,0,0-2.633-2.457s2.2-.439,3.51,2.691a14.6,14.6,0,0,1,3.107,1.217,13.681,13.681,0,0,0-2.4-4.891s2.574.995,3.095,5.3l2.609,1.585s-.913-4.388-2.176-5.932c0,0,2.469,1.422,2.8,6.383l2.34,1.913a23.2,23.2,0,0,0-1.527-5.85s2.007,1.814,2.17,6.435l1.392,1.463s-.409-2.8-.585-3.592,0-.907,0-.907a9.589,9.589,0,0,1,1.2,5.1S956.914,293.9,957.124,293.764Z" transform="translate(-443.301 -147.704)" fill="#244087" opacity="0.1"/>
    <path id="Path_233" data-name="Path 233" d="M721.227,379.319s-11.952-18.826-23.05-7.559a3.784,3.784,0,0,0-2.094,3.949s.965-.644,1.96,1.4a10.016,10.016,0,0,0,1.322,2.024,5,5,0,0,0,2.72,1.685h0s5.763,3.557,15.474-.468c0,0,2.861.152,3.282-.24l-3.51-2.106s-1.445,2.633-3.861,3.13c0,0,3.873-2.925,3.352-3.463-.1-.105-1.9-1.03-1.9-1.03s-2.533,4.551-6.289,5.213c0,0,5.084-2.9,5.61-5.575l-2.8-1.234s-2.44,4.944-6.687,5.85c0,0,5.207-3.212,6.055-6.09l-2.925-.842s-2.469,4.78-6.008,5.511c0,0,5.64-4.318,5.33-5.663a14.53,14.53,0,0,0-3.51-.427s-1.855,3.387-3.949,3.633c0,0,3.463-3.288,3.177-3.721,0,0-3.762.146-5.634,1.229a11.385,11.385,0,0,1,5.581-1.814,6.278,6.278,0,0,0-3.212-1.621s1.983-1.035,4.1,1.6a14.454,14.454,0,0,1,3.329.292s-1.755-2.925-3.68-4.019c0,0,2.75.234,4.458,4.218l2.954.784s-2.112-3.949-3.756-5.078c0,0,2.767.667,4.481,5.341l2.761,1.17a23.318,23.318,0,0,0-3.118-5.2s2.434,1.17,3.89,5.564l1.755,1.012s-1.17-2.568-1.585-3.276-.252-.872-.252-.872a9.592,9.592,0,0,1,2.58,4.557S721.069,379.518,721.227,379.319Z" transform="translate(-344.547 -184.971)" fill="#244087" opacity="0.1"/>
    <path id="Path_234" data-name="Path 234" d="M855.593,214.564s-11.367-19.183-22.816-8.266a3.8,3.8,0,0,0-2.211,3.885s.977-.62,1.913,1.457a10.117,10.117,0,0,0,1.258,2.071,4.967,4.967,0,0,0,2.668,1.755h0s5.646,3.732,15.48,0c0,0,2.855.24,3.288-.14l-3.434-2.211s-1.521,2.58-3.955,3.007c0,0,3.961-2.826,3.463-3.358-.105-.111-1.872-1.094-1.872-1.094s-2.674,4.475-6.435,5.02c0,0,5.172-2.738,5.774-5.394l-2.761-1.3s-2.592,4.873-6.868,5.651c0,0,5.306-3.048,6.242-5.9l-2.89-.936s-2.621,4.68-6.178,5.324c0,0,5.768-4.142,5.5-5.493a14.448,14.448,0,0,0-3.51-.538s-1.96,3.329-4.06,3.51c0,0,3.563-3.171,3.294-3.615,0,0-3.768.029-5.669,1.053a11.42,11.42,0,0,1,5.634-1.638,6.29,6.29,0,0,0-3.165-1.72s2.018-.977,4.1,1.72a14.819,14.819,0,0,1,3.317.4,13.994,13.994,0,0,0-3.551-4.13s2.738.316,4.323,4.353l2.925.878s-1.983-4.013-3.6-5.2c0,0,2.75.755,4.318,5.476l2.72,1.27A23.508,23.508,0,0,0,845.9,205.2s2.393,1.246,3.721,5.681l1.714,1.065s-1.1-2.6-1.486-3.323-.222-.878-.222-.878a9.614,9.614,0,0,1,2.44,4.633S855.423,214.757,855.593,214.564Z" transform="translate(-400.36 -116.406)" fill="#244087"/>
    <path id="Path_235" data-name="Path 235" d="M737.074,277.963s.585-22.29-14.9-19.148a3.812,3.812,0,0,0-3.943,2.112s1.17,0,.842,2.252a10.276,10.276,0,0,0-.035,2.422,5,5,0,0,0,1.316,2.925h0s2.791,6.166,13.093,8.261c0,0,2.287,1.726,2.861,1.632l-1.755-3.7s-2.662,1.369-4.949.439c0,0,4.856-.287,4.721-1,0-.146-1.006-1.925-1.006-1.925s-4.645,2.369-8.126.813c0,0,5.85.439,7.763-1.486l-1.632-2.592s-4.786,2.738-8.822,1.123c0,0,6.113.246,8.43-1.667l-1.948-2.34s-4.721,2.586-8.068,1.217c0,0,7.091-.427,7.605-1.72a15.171,15.171,0,0,0-2.691-2.34s-3.428,1.755-5.3.807c0,0,4.68-.784,4.71-1.3,0,0-3.2-1.983-5.359-2.13a11.39,11.39,0,0,1,5.646,1.615,6.289,6.289,0,0,0-1.755-3.142s2.229.252,2.533,3.627a14.547,14.547,0,0,1,2.6,2.106,13.682,13.682,0,0,0-.807-5.388s2.153,1.726,1.346,5.985l2.007,2.305s.456-4.458-.275-6.312c0,0,1.919,2.1.737,6.933l1.621,2.521a23.328,23.328,0,0,0,.322-6.049s1.357,2.34.117,6.792l.889,1.814s.451-2.791.509-3.6.281-.866.281-.866a9.605,9.605,0,0,1-.4,5.224S736.816,278.039,737.074,277.963Z" transform="translate(-353.759 -139.468)" fill="#244087"/>
    <ellipse id="Ellipse_48" data-name="Ellipse 48" cx="15.755" cy="2.662" rx="15.755" ry="2.662" transform="translate(393.161 416.396)" fill="#244087" opacity="0.1"/>
    <ellipse id="Ellipse_49" data-name="Ellipse 49" cx="15.755" cy="2.662" rx="15.755" ry="2.662" transform="translate(335.729 456.809)" fill="#244087" opacity="0.1"/>
    <ellipse id="Ellipse_50" data-name="Ellipse 50" cx="15.755" cy="2.662" rx="15.755" ry="2.662" transform="translate(38.733 436.105)" fill="#244087" opacity="0.1"/>
    <ellipse id="Ellipse_51" data-name="Ellipse 51" cx="15.755" cy="2.662" rx="15.755" ry="2.662" transform="translate(455.227 454.147)" fill="#244087" opacity="0.1"/>
    <ellipse id="Ellipse_52" data-name="Ellipse 52" cx="23.524" cy="3.978" rx="23.524" ry="3.978" transform="translate(463.862 419.057)" fill="#244087"/>
    <path id="Path_236" data-name="Path 236" d="M929.565,759.315a6.793,6.793,0,0,0,2.241-3.381,3.005,3.005,0,0,0-1.562-3.446c-1.439-.55-2.978.445-4.148,1.451s-2.5,2.159-4.025,1.948a6.143,6.143,0,0,0,1.9-5.739,2.406,2.406,0,0,0-.526-1.17c-.8-.854-2.246-.485-3.206.187-3.042,2.141-3.891,6.271-3.908,9.992a18.784,18.784,0,0,1-.053-4.1c-.006-1.357-.386-2.925-1.55-3.639a4.627,4.627,0,0,0-2.34-.585c-1.369-.047-2.9.088-3.826,1.088-1.17,1.24-.86,3.329.146,4.68a15.132,15.132,0,0,0,3.961,3.171,8.849,8.849,0,0,1,2.832,2.7,2.746,2.746,0,0,1,.2.48h8.577A23.658,23.658,0,0,0,929.565,759.315Z" transform="translate(-432.427 -342.79)" fill="#244087"/>
    <path id="Path_237" data-name="Path 237" d="M170.29,780.426s8.98-.275,11.7-2.206,13.824-4.23,14.5-1.135,13.5,15.38,3.358,15.462-23.571-1.58-26.274-3.229S170.29,780.426,170.29,780.426Z" transform="translate(-126.379 -354.032)" fill="#a8a8a8"/>
    <path id="Path_238" data-name="Path 238" d="M200.015,794.907c-10.144.082-23.571-1.58-26.274-3.229-2.059-1.252-2.878-5.751-3.153-7.828h-.3s.585,7.249,3.27,8.892,16.129,3.311,26.274,3.229c2.925,0,3.937-1.065,3.885-2.609C203.309,794.3,202.192,794.889,200.015,794.907Z" transform="translate(-126.379 -357.468)" opacity="0.2"/>
  </g>
</svg>
