<svg xmlns="http://www.w3.org/2000/svg" xmlns:xlink="http://www.w3.org/1999/xlink" width="852" height="893.321" viewBox="0 0 852 893.321">
  <defs>
    <filter id="asdasdas" x="63.502" y="0" width="788.498" height="893.321" filterUnits="userSpaceOnUse">
      <feOffset dx="-3" input="SourceAlpha"/>
      <feGaussianBlur stdDeviation="5" result="blur"/>
      <feFlood flood-opacity="0.451"/>
      <feComposite operator="in" in2="blur"/>
      <feComposite in="SourceGraphic"/>
    </filter>
  </defs>
  <g id="Group_326" data-name="Group 326" transform="translate(-1080 -201.679)">
    <g transform="matrix(1, 0, 0, 1, 1080, 201.68)" filter="url(#asdasdas)">
      <path id="asdasdas-2" data-name="asdasdas" d="M759,863.321H.5C442.292,720.3,605.967,420.949,759,0Z" transform="translate(81 15)" fill="#354152"/>
    </g>
    <g id="humaaans_sitting-8" data-name="humaaans/sitting-8" transform="translate(1379 602)">
      <g id="A-Human_Sitting" data-name="A-Human/Sitting" transform="translate(356 24) rotate(180)">
        <g id="Head_Front_Short-2" data-name="Head/Front/Short-2" transform="translate(82)">
          <g id="Head" transform="translate(54 -31)">
            <path id="Path_241" data-name="Path 241" d="M8.262-34.49C3.654-29.081.536-22.453,1.057-15.026c1.5,21.4,31.292,16.693,37.087,5.892s5.106-38.2-2.383-40.13c-2.987-.77-9.349,1.116-15.825,5.019L24-73H0Z" fill="#915b3c" fill-rule="evenodd"/>
          </g>
          <path id="Hair" d="M60.418-70.308c-3.012,13.4-11.594,22.536-10.283,28.526a9.085,9.085,0,0,0,6.986,7.45q2.935,11.875,18.934,10.1c16-1.773,25.763-8.417,21.547-23.037-3.876,0-8.556,1.4-15.027-1q-3.08-1.143-4.406-7.09H75.246q-4.257,7.057-8.395,5.187t-1.881-9.087l-1.44-11.049Z" fill="#191847" fill-rule="evenodd"/>
        </g>
        <g id="Bottom_Sitting_Baggy-Pants" data-name="Bottom/Sitting/Baggy-Pants" transform="translate(0 -187)">
          <g id="Objects_Seat_Cube-2" data-name="Objects/Seat/Cube-2" transform="translate(10 -42)">
            <path id="Seat" d="M59,0H174a16,16,0,0,0,16-16v-92a16,16,0,0,0-16-16H59a16,16,0,0,0-16,16v92A16,16,0,0,0,59,0ZM75-28a4,4,0,0,1-4-4V-92a4,4,0,0,1,4-4h83a4,4,0,0,1,4,4v60a4,4,0,0,1-4,4Z" fill="#c5cfd6" fill-rule="evenodd"/>
          </g>
          <path id="LegLower" d="M299.159-161q-29.574,36.114-40.021,53.546c-11.925,19.9-21.685,37.606-24.765,44.37-7.345,16.129,16.909,23.682,22.4,16.159Q269.233-64.006,310-154.417Z" fill="#b28b67" fill-rule="evenodd"/>
          <path id="LegLower-2" data-name="LegLower" d="M258.758-154,222.065-61.637c-7.848,16.837,30.051,27.9,35.818,20.069C270.977-59.357,302.1-129.534,306-134.834Z" fill="#445874" fill-rule="evenodd"/>
          <g id="Lower-Leg" transform="matrix(0.777, -0.629, 0.629, 0.777, 244.113, -25.238)">
            <path id="LegLower-3" data-name="LegLower" d="M4.81-137.955C3.8-125.354,1.934-81.734,3.8-61.543c.538,5.8,1.1,11.411,1.675,16.674,1.7,15.641,30.7,15.147,28.4.287-5.736-37.007-15.831-88.87-16.555-93.351C16.307-144.215,5.443-145.874,4.81-137.955Z" fill="#915b3c" fill-rule="evenodd"/>
          </g>
          <g id="Accessories_Shoe_Flat-Sneaker" data-name="Accessories/Shoe/Flat-Sneaker" transform="matrix(0.866, -0.5, 0.5, 0.866, 173.086, -107.429)">
            <path id="shoe" d="M2.678-25.4A21.472,21.472,0,0,1,1-32.106,50.177,50.177,0,0,1,1.9-40H58.3q2.2,7.268-2.538,7.848T47.9-31.106L21.68-19.419a1,1,0,0,1-1.321-.506l-.011-.026-1.685-4.088a17.983,17.983,0,0,0-7.127-2.046,16.139,16.139,0,0,0-6.152,1.8h0a2,2,0,0,1-2.652-.985Q2.7-25.335,2.678-25.4Z" fill="#e4e4e4" fill-rule="evenodd"/>
          </g>
          <g id="Accessories_Shoe_Flat-Sneaker-2" data-name="Accessories/Shoe/Flat-Sneaker" transform="translate(288 -132)">
            <path id="shoe-2" data-name="shoe" d="M2.678-25.4A21.472,21.472,0,0,1,1-32.106,50.177,50.177,0,0,1,1.9-40H58.3q2.2,7.268-2.538,7.848T47.9-31.106L21.68-19.419a1,1,0,0,1-1.32-.506l-.011-.026-1.685-4.088a17.983,17.983,0,0,0-7.127-2.046,16.139,16.139,0,0,0-6.152,1.8h0a2,2,0,0,1-2.652-.985Q2.7-25.335,2.678-25.4Z" fill="#e4e4e4" fill-rule="evenodd"/>
          </g>
          <path id="Leg-and-Butt" d="M208.862-66.25Q163.117-58.8,147.581-56.058C118.057-50.852,109.448-34.965,114.538-.3h54.4q10.8-3.118,90.234-38.569c9.528-4.73,7.753-18.676,6.012-23.27q-.106-.281-48.188-82.571l-44.5,28.348L208.946-69.59Q210.389-66.682,208.862-66.25Z" fill="#5e7595" fill-rule="evenodd"/>
        </g>
        <g id="Body_Hoodie" data-name="Body/Hoodie" transform="translate(22 -82)">
          <path id="Skin" d="M190.781-92.212l31.9-23.424a85.87,85.87,0,0,0,21.685-8.714c1.371-1.249,3.028-3.779-2.659-3.342s-11.687.642-12.472-1.3,2.657-4.259,1.071-6.876q-1.587-2.617-14.987,13.124l-31.587,13.1ZM68.308-93.02l20.9-.082q-19.355-62.481-20.9-66.3c-2.314-5.734,2.583-14.468,4.677-19.161-6.82-3.052-6.093,8.25-14.7,4.248-7.853-3.654-13.826-10.273-22.9-4.675-1.115.688-2.338,3.279.616,5.3,7.358,5.045,17.961,13.875,19.393,16.782Q58.328-150.964,68.308-93.02Z" fill="#915b3c" fill-rule="evenodd"/>
          <path id="Coat-Back" d="M122.731-9.58l8.485,2.231C165.593-32.163,183.361-84.056,225-108.727l-8.407-12.514C147.888-118.771,125.382-55.547,122.731-9.58Z" transform="translate(6.265 14.909) rotate(-5)" fill="#356bbb" fill-rule="evenodd"/>
          <path id="Shirt" d="M90-114h76.511c3.5,0,2.838,5.048,2.332,7.6-5.832,29.4-28.6,61.092-28.6,102.943L118.172,0C99.918-29.358,93.6-65.5,90-114Z" fill="#dde3e9" fill-rule="evenodd"/>
          <path id="Coat-Front" d="M90.615-28.858A12.622,12.622,0,0,0,83-22.411C74.934-7.856,77.847.158,86.467,2.792S102.775,0,116.51,0a13.834,13.834,0,0,0,2.053-.14l6.909-.394Q155.205-101.305,141.872-135H81.652a205.387,205.387,0,0,0-10.243-21H55Q52.684-81.1,90.615-28.858Z" fill="#416aa7" fill-rule="evenodd"/>
          <path id="Shade" d="M94.765-100.5Q97.606-124.267,104-135H81.652Q87.895-120.442,94.765-100.5Z" fill="rgba(0,0,0,0.1)" fill-rule="evenodd"/>
        </g>
      </g>
    </g>
    <g id="Symbols" transform="translate(1182 576)">
      <g id="Scene_Home" data-name="Scene/Home" transform="translate(-505 -85)">
        <g id="Clock" transform="translate(505 85)">
          <circle id="Clock-Frame" cx="53" cy="53" r="53" fill="#5e709e"/>
          <circle id="Time" cx="3" cy="3" r="3" transform="translate(50 8)" fill="rgba(0,0,0,0.3)"/>
          <circle id="Time-2" data-name="Time" cx="3" cy="3" r="3" transform="translate(8 50)" fill="rgba(0,0,0,0.3)"/>
          <circle id="Time-3" data-name="Time" cx="3" cy="3" r="3" transform="translate(92 50)" fill="rgba(0,0,0,0.3)"/>
          <circle id="Time-4" data-name="Time" cx="3" cy="3" r="3" transform="translate(50 92)" fill="rgba(0,0,0,0.3)"/>
          <path id="Hand" d="M53,17l2,35H51Z" fill="#e4e4e4" fill-rule="evenodd"/>
          <path id="Hand-2" data-name="Hand" d="M62.213,50.213l2,24h-4Z" transform="translate(150.196 62.213) rotate(135)" fill="#e4e4e4" fill-rule="evenodd"/>
          <circle id="Time-5" data-name="Time" cx="4" cy="4" r="4" transform="translate(49 49)" fill="#e4e4e4"/>
        </g>
      </g>
    </g>
    <g id="Symbols-2" data-name="Symbols" transform="translate(1080 728)">
      <g id="Scene_Home-2" data-name="Scene/Home" transform="translate(-135 -353)">
        <g id="Table" transform="translate(135 353)">
          <g id="Lamp" transform="translate(23)">
            <rect id="Lamp-Base" width="38" height="9" rx="2" transform="translate(21 144)" fill="#afb9c5"/>
            <path id="Lamp-Body" d="M31,115a167.692,167.692,0,0,0,7.217-44h4.566A167.692,167.692,0,0,0,50,115h6.5a15.5,15.5,0,0,1,0,31h-33a15.5,15.5,0,0,1,0-31Z" fill="#dde3e9" fill-rule="evenodd"/>
            <path id="Shade-2" data-name="Shade" d="M4.622,1.679Q21.811,0,39,0T73.378,1.679L78,81.133Q58.5,83,39,83T0,81.133Z" fill="#c5cfd6" fill-rule="evenodd"/>
          </g>
          <path id="Path_243" data-name="Path 243" d="M21,153H125V257H104V175H21v82H0V153Z" fill="#354152" fill-rule="evenodd"/>
        </g>
      </g>
    </g>
    <g id="Symbols-3" data-name="Symbols" transform="translate(1667 750.148)" opacity="0.15">
      <g id="Scene_Plants" data-name="Scene/Plants" transform="translate(-495 -14)">
        <g id="Top-Leaves" transform="translate(495)">
          <path id="Leaf" d="M211.46,136.914c.238-10.386-4.017-19.958-8.727-28.992-9.169-17.587-13.755-28.109-12.273-49,.872-12.284,1.914-25.263-4.356-36.418-4.565-8.123-14.141-16.813-24.253-15.344-16.007,3.646-24.943,18.9-28.369,34.042-4.246,18.77.616,32.774,14.79,44.8,7.987,6.775,12.492,13.754,14.67,24.072,1.743,8.251,1.248,17.713,4.229,25.648,4.457,11.862,12.5,19.106,24.608,21.309-4.368-23.512-10.5-47.806-20.343-69.6-.883-2.157-7.23-11.377-4.589-13.706,2.909-2.564,7.71,12.178,7.672,12.086,2.789,6.551,5.142,13.314,7.4,20.105-.012,0-.025,0-.038,0q3.5,10.459,6.783,21.109c.844,2.975,1.634,5.967,2.336,9,1.03,4.449,1.152,16.166,4.073,19.645a6.3,6.3,0,0,0,1.9,1.586c1.17,4.906,2.262,9.823,3.219,14.75,2.5,12.868,3.944,26.067,2.324,39.152-.473,3.819-5.332,17.1-3.722,20.492,2.943,6.2,4.6-3.362,5.226-6.207,5.193-23.562,3.316-45.683-2.35-68.751,5.209-3.588,9.687-15.573,9.784-19.781" transform="translate(-28.786 58.959) rotate(-18)" fill="#f2f2f2" fill-rule="evenodd"/>
          <path id="Leaf-2" data-name="Leaf" d="M115.859-100.659c-7.6-1.112-14.777-10.72-18.318-17.126-4.381-7.926-7.437-16.971-9.739-25.678-3.792-14.344-4.3-30.263-4.352-44.954-.006-1.77-.375-23.393,2.153-23.038,2.5.351.918,22.8,1.132,27.444.455,9.918-.225,19.7,2.1,29.493a93.494,93.494,0,0,0,12.4,28.455c.716,1.124,2.232,5.3,3.954,4.338,1.684-.944-2.981-6.512-3.644-7.594a95.879,95.879,0,0,1-7.077-14.061,74.092,74.092,0,0,1-5.535-28.451c5.785-.889,10.825,2.5,12.766,8.144,1.676,4.878,1.84,10.554,3.745,15.167a22.483,22.483,0,0,0,5.95,8.156c6.731,6.018,13.758,7.523,15.764,17.509,1.573,7.829-.38,23.787-11.306,22.2" transform="translate(29.162 -16.165) rotate(122)" fill="#f2f2f2" fill-rule="evenodd"/>
          <path id="Leaf-Me-Alone_" data-name="Leaf-Me-Alone!" d="M2.352-80H0a78.48,78.48,0,0,0,.884,8.915c1.891,11.062,7.8,27.31,20.766,29.105a33.776,33.776,0,0,0,4.369-.045,7.939,7.939,0,0,0,3.334.974c11.038.805,23.365-8,28.689-17.172,4.292-7.391,3.569-17.1.918-24.95C57.184-88.431,53.31-95.926,46.848-96c-8.084-.091-8.474,9.793-8.63,15.571-.208,7.682-1.189,14.374-7.308,19.611-1.426,1.22-2.985,2.293-4.425,3.5-2.256,1.883-4.748,3.811-5.039,6.926-.4,4.3,2.051,5.071,5.8,4.272.638-.136,7.067-2.99,6.115-.734-.291.689-1.352,1.235-2.692,1.644-3.467.373-7.6.806-8.79.547C9.047-47.45,4.053-65.028,2.726-76.2,2.576-77.46,2.456-78.729,2.352-80Z" transform="translate(61.105) rotate(180)" fill="#f2f2f2" fill-rule="evenodd"/>
        </g>
      </g>
    </g>
  </g>
</svg>
