<svg xmlns="http://www.w3.org/2000/svg" width="361.757" height="229.688" viewBox="0 0 361.757 229.688">
  <g id="undraw_a_whole_year_vnfm" transform="translate(0.003 0.757)">
    <g id="Group_35" data-name="Group 35" transform="translate(263.465 17.227)" opacity="0.2">
      <path id="Path_6" data-name="Path 6" d="M946.432,697.792q-3.738,2.251-7.623,4.361c-.4.217-.8.435-1.206.659q-2.92,1.566-5.933,3.045.023-.237.059-.475a14.367,14.367,0,0,1,1.51-4.687,11.806,11.806,0,0,1,1.285-1.978c1.961-2.449,4.684-3.817,7.465-3.418A7.251,7.251,0,0,1,946.432,697.792Z" transform="translate(-904.946 -517.163)" fill="#3f3d56"/>
      <path id="Path_7" data-name="Path 7" d="M954.875,665.961c-.049.353-.112.7-.188,1.042q-2.159,1.388-4.38,2.706-3.738,2.251-7.623,4.36c-.4.218-.8.435-1.206.659a8.033,8.033,0,0,1-1.318-1.216,10.219,10.219,0,0,1-1.75-2.864,14.278,14.278,0,0,1,1.978-13.82c1.978-2.449,4.683-3.817,7.465-3.418s5.01,2.479,6.2,5.379A13.774,13.774,0,0,1,954.875,665.961Z" transform="translate(-908.82 -489.079)" fill="#3f3d56"/>
      <ellipse id="Ellipse_1" data-name="Ellipse 1" cx="11.424" cy="8.728" rx="11.424" ry="8.728" transform="translate(29.149 171.895) rotate(-81.82)" fill="#3f3d56"/>
      <path id="Path_8" data-name="Path 8" d="M948.444,202.546a41.631,41.631,0,0,1-6.262,16.756l-24.522-3.711,22.162,6.991a42.406,42.406,0,0,1-3.9,4.285,41.805,41.805,0,0,1-7.35,51.159,41.6,41.6,0,0,1,5.573,22.57,170.525,170.525,0,0,1-37.682,32.3q-2.169,1.374-4.39,2.693-3.738,2.251-7.623,4.36c-.854-.165-1.694-.353-2.525-.57-1.032-.26-2.043-.564-3.036-.9a41.8,41.8,0,0,1-15.366-69.8q-.633-1.091-1.2-2.218h0c-.112-.218-.218-.435-.33-.659a41.6,41.6,0,0,1-4.021-20.4l.049-.728c.03-.392.066-.788.105-1.18.059-.554.129-1.111.208-1.668v-.053a41.506,41.506,0,0,1,4.08-12.9l29.9,15.056-27.26-19.538a41.856,41.856,0,0,1,5.8-6.869,41.8,41.8,0,1,1,75.005-36.509L912.288,198.97l35.385-12.35A41.683,41.683,0,0,1,948.444,202.546Z" transform="translate(-850.588 -154.959)" fill="#244087"/>
      <path id="Path_9" data-name="Path 9" d="M934.136,476.405a170.523,170.523,0,0,1-37.682,32.3q-2.159,1.388-4.38,2.706-3.738,2.251-7.623,4.361c-.854-.165-1.694-.353-2.525-.57-1.032-.26-2.043-.564-3.036-.9a41.8,41.8,0,0,1-15.366-69.8q-.633-1.091-1.2-2.218h0c-.112-.218-.218-.435-.33-.659a41.6,41.6,0,0,1-4.021-20.4l.049-.728c.03-.392.066-.788.105-1.18.059-.554.129-1.111.208-1.668V417.6c.257-.89,3.658-.142,8.84,1.648h0l1.094.389c1.147.412,2.37.867,3.655,1.365h0c2.8,1.081,5.9,2.357,9.172,3.767h0l.214.092h0l.455.2h0c21.984,9.532,50.9,24.825,46.756,28.773a41.6,41.6,0,0,1,5.609,22.577Z" transform="translate(-850.588 -330.782)" opacity="0.1"/>
    </g>
    <g id="Group_36" data-name="Group 36" transform="translate(-0.003 13.931)" opacity="0.2">
      <path id="Path_10" data-name="Path 10" d="M342.647,745.458q-2.076-.718-4.123-1.477-4.766-1.753-9.383-3.708a6.851,6.851,0,0,1,2.093-1.16c2.745-.943,5.761-.043,8.217,2.126A13.941,13.941,0,0,1,342.647,745.458Z" transform="translate(-237.536 -543.036)" fill="#3f3d56"/>
      <path id="Path_11" data-name="Path 11" d="M323.048,712.814a11.011,11.011,0,0,1-.926,2.742q-4.766-1.753-9.383-3.708-4.018-1.691-7.91-3.53a15,15,0,0,1-.152-2.376,13.322,13.322,0,0,1,.264-2.465c.659-3.24,2.525-5.821,5.273-6.763s5.761-.043,8.217,2.129a12.991,12.991,0,0,1,1.628,1.734,15.355,15.355,0,0,1,2.465,4.641A14.848,14.848,0,0,1,323.048,712.814Z" transform="translate(-221.134 -514.611)" fill="#3f3d56"/>
      <ellipse id="Ellipse_2" data-name="Ellipse 2" cx="9.004" cy="12.047" rx="9.004" ry="12.047" transform="translate(76.006 170.791) rotate(-17.54)" fill="#3f3d56"/>
      <ellipse id="Ellipse_3" data-name="Ellipse 3" cx="8.971" cy="12.001" rx="8.971" ry="12.001" transform="translate(70.773 156.231) rotate(-17.526)" fill="#3f3d56"/>
      <path id="Path_12" data-name="Path 12" d="M150.115,330.924q-1.374.8-2.821,1.506a42.7,42.7,0,0,1-4.789,1.978,41.935,41.935,0,0,1-4.552,1.289q-1.605.363-3.214.59-2,.287-3.985.376A187.136,187.136,0,0,1,88.33,308.024c-.175-.468-.33-.939-.5-1.417a44.923,44.923,0,0,1,.152-28.872,44.056,44.056,0,0,1-17.31-22.867A45.078,45.078,0,0,1,68.366,240.7h34.518L68.7,235.23A44.825,44.825,0,0,1,70.825,226a44.037,44.037,0,0,1-17.31-22.864c-7.666-23.108,4.387-48.12,26.921-55.879a42.421,42.421,0,0,1,42.244,8.734l-22.462,32.88,26.743-28.45a44.5,44.5,0,0,1,8.148,14.64,45.019,45.019,0,0,1,2.07,18.787l-24.268,8.141,23.632-3.932a44.561,44.561,0,0,1-1.585,5.88,44.05,44.05,0,0,1,17.31,22.864,45.088,45.088,0,0,1,2.307,13.79v1.585a44.823,44.823,0,0,1-2.442,13.513,43.507,43.507,0,0,1,8.9,7.927c.066.073.129.145.188.221a44.439,44.439,0,0,1,8.21,14.716C176.175,298.891,167.636,320.71,150.115,330.924Z" transform="translate(-51.207 -144.958)" fill="#244087"/>
      <path id="Path_13" data-name="Path 13" d="M189.669,544.753q-1.374.8-2.821,1.506a42.708,42.708,0,0,1-4.789,1.977,41.943,41.943,0,0,1-4.552,1.289q-1.605.363-3.214.59-2,.287-3.985.376a187.137,187.137,0,0,1-42.425-28.638c-.175-.468-.33-.939-.5-1.417a44.923,44.923,0,0,1,.152-28.872,44.056,44.056,0,0,1-17.31-22.867c-1.183-3.566,48.16-6.444,70.635-3.685l.524.066c6.823.88,11.012,2.307,10.283,4.42a43.506,43.506,0,0,1,8.9,7.927c.066.072.129.145.188.221a44.439,44.439,0,0,1,8.21,14.716C215.73,512.72,207.19,534.539,189.669,544.753Z" transform="translate(-90.761 -358.787)" opacity="0.1"/>
    </g>
    <path id="Path_14" data-name="Path 14" d="M381.631,325.608a1.562,1.562,0,0,0,.283-.87c0-1.9-3.859-3.428-8.619-3.428s-8.612,1.546-8.612,3.428a1.648,1.648,0,0,0,.353.989c-5.3.59-8.866,1.7-8.866,2.966,0,1.892,7.91,3.424,17.65,3.424s17.65-1.533,17.65-3.424C391.466,327.335,387.458,326.168,381.631,325.608Z" transform="translate(-255.66 -249.255)" fill="#244087" opacity="0.1"/>
    <path id="Path_15" data-name="Path 15" d="M766.128,109.516a2.508,2.508,0,0,0,.451-1.388c0-3-6.124-5.438-13.678-5.438s-13.678,2.436-13.678,5.438a2.574,2.574,0,0,0,.564,1.546c-8.411.939-14.077,2.7-14.077,4.716,0,3,12.524,5.438,28.015,5.438s28.015-2.436,28.015-5.438C781.741,112.251,775.376,110.4,766.128,109.516Z" transform="translate(-503.403 -102.69)" fill="#244087" opacity="0.1"/>
    <path id="Path_16" data-name="Path 16" d="M433.128,109.516a2.509,2.509,0,0,0,.452-1.388c0-3-6.124-5.438-13.678-5.438s-13.678,2.436-13.678,5.438a2.574,2.574,0,0,0,.564,1.546c-8.411.939-14.077,2.7-14.077,4.716,0,3,12.541,5.438,28.015,5.438s28.015-2.436,28.015-5.438C448.741,112.251,442.376,110.4,433.128,109.516Z" transform="translate(-280.157 -102.69)" fill="#244087" opacity="0.1"/>
    <path id="Path_17" data-name="Path 17" d="M410.13,202.682a1.893,1.893,0,0,1,2.334.7,5.582,5.582,0,0,1,.811,2.515c.293,1.948.5,4.186-.808,5.656a18.384,18.384,0,0,1,15.161-12.238" transform="translate(-291.835 -167.465)" fill="none" stroke="#244087" stroke-miterlimit="10" stroke-width="3" opacity="0.1"/>
    <path id="Path_18" data-name="Path 18" d="M671.6,107.089a1.237,1.237,0,0,1,1.5.445,3.527,3.527,0,0,1,.517,1.618c.188,1.252.33,2.689-.517,3.625a11.819,11.819,0,0,1,9.739-7.867" transform="translate(-467.127 -104.178)" fill="none" stroke="#244087" stroke-miterlimit="10" stroke-width="3" opacity="0.1"/>
    <path id="Path_19" data-name="Path 19" d="M843.6,292.089a1.238,1.238,0,0,1,1.5.445,3.528,3.528,0,0,1,.517,1.618c.188,1.252.33,2.689-.517,3.626a11.819,11.819,0,0,1,9.739-7.867" transform="translate(-582.438 -228.204)" fill="none" stroke="#244087" stroke-miterlimit="10" stroke-width="3" opacity="0.1"/>
    <path id="Path_20" data-name="Path 20" d="M548.516,155.781c-1.411,1.18-2.406,2.693-3.955,3.757-1.865,1.285-4.314,1.773-6.592,2.462s-4.614,1.77-5.531,3.645c-.778,1.605-.33,3.467-.989,5.109-.709,1.744-2.548,2.966-3.955,4.374a11.288,11.288,0,0,0-3.3,10.151c.5,2.462,1.859,4.736,2.666,7.139a32.775,32.775,0,0,1,1.266,9.07c.257,5.725.511,11.506-.778,17.139-.33,1.414-1.219,22.913-2.943,22.87,4.575-.392,9.176-.435,13.774-.481l68.885-.659c-3.174-4.153-5.2-28.694-5.873-33.589-1.16-8.438,1.648-16.885,1.978-25.379a7.2,7.2,0,0,0-.405-3.246c-.475-1.078-1.424-2-1.74-3.115-.455-1.6.458-3.237.488-4.878.059-3.3-3.3-5.824-5.956-8.266-2.564-2.35-4.7-5.02-7.343-7.31a17.726,17.726,0,0,0-9.756-4.585c-3.108-.287-6.2.521-9.173,1.318-3.55.949-6.921,2.149-10.689,2.09C554.442,153.325,551.881,153.671,548.516,155.781Z" transform="translate(-368.172 -134.361)" fill="#2f2e41"/>
    <g id="Group_37" data-name="Group 37" transform="translate(160.604 33.292)" opacity="0.1">
      <path id="Path_21" data-name="Path 21" d="M742.109,204.811a4.6,4.6,0,0,0,.415,1.035,6.085,6.085,0,0,0-.531-2.146A3.956,3.956,0,0,0,742.109,204.811Z" transform="translate(-674.922 -203.7)"/>
      <path id="Path_22" data-name="Path 22" d="M538.882,367.64l-.382.033A1.8,1.8,0,0,0,538.882,367.64Z" transform="translate(-538.5 -313.607)"/>
    </g>
    <path id="Path_23" data-name="Path 23" d="M609.616,643.134a2.9,2.9,0,0,1-1.45.59,174.357,174.357,0,0,1-25.523,3.675,219.592,219.592,0,0,1-22.768-.33c-7.584-.372-15.161-.748-22.564-2.281a57.507,57.507,0,0,0,5.7-19.713,58.207,58.207,0,0,0,.227-9.064,10.13,10.13,0,0,0-.132-1.084c-.353-2.169-1.223-5.31-.432-6.879,1.015-2.017,4.914-2.083,6.819-2.459,3.237-.636,6.49-1.167,9.756-1.612,12.963-1.763,26.057-2.165,39.119-2.558,1.753-.053,3.843.066,4.756,1.566a5.2,5.2,0,0,1,.458,2.874q-.089,3.2.063,6.4a85.614,85.614,0,0,0,5.992,27.577C610.074,640.915,610.473,642.326,609.616,643.134Z" transform="translate(-377.098 -437.037)" fill="#fbbebe"/>
    <path id="Path_24" data-name="Path 24" d="M575.244,349.047a15.9,15.9,0,0,1-5.273,3.84,65.875,65.875,0,0,1-7.2,3.19c-.5.755-.1,1.757.33,2.561,3.866,7.508,9.041,14.97,16.845,18.2,4,1.648,8.4,2.06,12.716,2.446a12.314,12.314,0,0,0,4.028-.086,10.378,10.378,0,0,0,3.626-1.931A33.82,33.82,0,0,0,613.4,354.94c.105-.788.105-1.753-.57-2.175a2.64,2.64,0,0,0-1.42-.2c-3.161.033-5.962-2.307-7.422-5.105s-1.849-6.025-2.208-9.166c0-.069-18.582-.461-20.26-.475-2.617-.023-3.48.283-3.734,2.966C577.521,343.744,577.192,346.634,575.244,349.047Z" transform="translate(-394.01 -260.321)" fill="#fbbebe"/>
    <path id="Path_25" data-name="Path 25" d="M575.244,349.047a15.9,15.9,0,0,1-5.273,3.84,65.875,65.875,0,0,1-7.2,3.19c-.5.755-.1,1.757.33,2.561,3.866,7.508,9.041,14.97,16.845,18.2,4,1.648,8.4,2.06,12.716,2.446a12.314,12.314,0,0,0,4.028-.086,10.378,10.378,0,0,0,3.626-1.931A33.82,33.82,0,0,0,613.4,354.94c.105-.788.105-1.753-.57-2.175a2.64,2.64,0,0,0-1.42-.2c-3.161.033-5.962-2.307-7.422-5.105s-1.849-6.025-2.208-9.166c0-.069-18.582-.461-20.26-.475-2.617-.023-3.48.283-3.734,2.966C577.521,343.744,577.192,346.634,575.244,349.047Z" transform="translate(-394.01 -260.321)" opacity="0.1"/>
    <circle id="Ellipse_4" data-name="Ellipse 4" cx="25.379" cy="25.379" r="25.379" transform="translate(170.624 34.459)" fill="#fbbebe"/>
    <path id="Path_26" data-name="Path 26" d="M475.631,373.527c.28,3.56-37.975,6.892-39.419,2.5a3.4,3.4,0,0,1-3.682.659,27.588,27.588,0,0,1-3.494-1.889,21.366,21.366,0,0,0-6.4-1.786c-3.57-.6-7.716-1.045-10.359,1.43-.913.854-1.536,1.978-2.452,2.835-1.6,1.49-3.866,1.954-5.933,2.637a69.163,69.163,0,0,0-8.55,3.955,75.757,75.757,0,0,1-20.827,6.73c-1.539.26-3.088.471-4.614.837a10.89,10.89,0,0,0-5.745,3.045,13.55,13.55,0,0,0,6.793,4.232l25.411,8.306c3.823,1.249,7.706,2.525,11.051,4.763,5.573,3.718,9.2,9.828,11.183,16.226s2.495,13.147,2.989,19.828c.214,2.9.409,5.933-.732,8.622a66.732,66.732,0,0,0,17.8-.293c5.672-.864,11.282-2.465,17.02-2.413,6.262.063,12.33,2.093,18.5,3.19s12.986,1.13,18.187-2.373c-1.107-1.493-1.276-3.626-1.318-5.478l-.132-8.777a13.024,13.024,0,0,1,.211-3.164c.442-1.879,1.684-3.454,2.479-5.211,1.533-3.392,1.318-7.267,1.4-10.989s.606-7.719,3.121-10.441a12.961,12.961,0,0,1,6.3-3.408c4-1.068,8.187-1.137,12.32-1.43a110.307,110.307,0,0,0,38.892-10.128c-.732-1.546-2.432-2.422-3.985-3.141-3.672-1.7-7.561-3.438-11.588-3.059-1.948.185-3.876.863-5.817.616-1.839-.237-3.467-1.279-5.254-1.777a35.146,35.146,0,0,0-4.163-.643,37.057,37.057,0,0,1-9.192-3.121l-7.5-3.3c-1.978-.873-4.037-1.806-5.4-3.494-.442-.55-.8-1.17-1.279-1.688a7.158,7.158,0,0,0-3.128-1.776,10.132,10.132,0,0,0-4.505-.494,26.488,26.488,0,0,0-3.082.808C485.789,375.818,480.674,374.427,475.631,373.527Z" transform="translate(-261.017 -283.601)" fill="#354152"/>
    <path id="Path_27" data-name="Path 27" d="M598.422,730.6a245.5,245.5,0,0,1-41.133,6.262H522.438q-9.344-.636-18.418-1.945a65.448,65.448,0,0,1,7.32-15.062,7.889,7.889,0,0,0,1.14-2.182,11.489,11.489,0,0,0,.221-2.212,10.708,10.708,0,0,1,2.518-6.177q1.028.56,2.076,1.078a66.471,66.471,0,0,0,25.359,6.806,97.648,97.648,0,0,0,13.919-.28c10.435-.84,21.285-2.778,29.69-8.932.353-.257.7-.524,1.048-.8,4.084,3.625,6.447,9.182,8.138,14.377C596.454,724.576,597.383,727.608,598.422,730.6Z" transform="translate(-354.78 -507.932)" fill="#2f2e41"/>
    <path id="Path_28" data-name="Path 28" d="M645.15,714.66a3.649,3.649,0,0,0,.5,3.174,2.568,2.568,0,0,0-.534-2.874Z" transform="translate(-449.286 -512.96)" opacity="0.1"/>
    <path id="Path_29" data-name="Path 29" d="M553.7,388.678a9.045,9.045,0,0,1,4.117-1.338c2.188-.02,4.146,1.318,5.768,2.795a29.541,29.541,0,0,1,4.047,4.489,5.56,5.56,0,0,1,1.249,2.693,2.191,2.191,0,0,1-1.434,2.36,2.528,2.528,0,0,1-1.777-.359c-2.254-1.239-3.925-4.077-6.483-3.8-1.753.188-2.94,1.819-3.9,3.3a14.4,14.4,0,0,0-2.1,4.2,4.865,4.865,0,0,0,.864,4.443,8.451,8.451,0,0,0,3.151,1.786,21.961,21.961,0,0,1,6.714,4.357,5.571,5.571,0,0,1,1.978,3.3c.132,1.318-.867,2.769-2.172,2.676a3.476,3.476,0,0,1-1.612-.7c-2.36-1.559-4.769-3.194-7.538-3.767-2.818-.583-5.728,0-8.569.435q-4.674.7-9.393,1a7.854,7.854,0,0,1-2.792-.181c-3.111-.962-4.018-4.921-3.655-7.782.386-3.059,2.637-3.754,4.99-5.273C541.775,398.961,546.686,392.5,553.7,388.678Z" transform="translate(-372.259 -293.521)" fill="#fbbebe"/>
    <path id="Path_30" data-name="Path 30" d="M644.808,388.678a9.056,9.056,0,0,0-4.12-1.338c-2.189-.02-4.146,1.318-5.768,2.795a29.538,29.538,0,0,0-4.044,4.489,5.585,5.585,0,0,0-1.246,2.693,2.189,2.189,0,0,0,1.43,2.36,2.538,2.538,0,0,0,1.78-.359c2.254-1.239,3.925-4.077,6.48-3.8,1.757.188,2.943,1.819,3.9,3.3a14.319,14.319,0,0,1,2.1,4.2,4.874,4.874,0,0,1-.863,4.443,8.425,8.425,0,0,1-3.151,1.786,22,22,0,0,0-6.717,4.357,5.588,5.588,0,0,0-1.978,3.3c-.135,1.318.867,2.769,2.172,2.676a3.463,3.463,0,0,0,1.612-.7c2.36-1.559,4.769-3.194,7.538-3.767,2.818-.583,5.728,0,8.569.435,3.108.488,6.242.827,9.383,1.015a7.874,7.874,0,0,0,2.795-.181c3.108-.962,4.014-4.921,3.655-7.782-.389-3.059-2.637-3.754-4.993-5.273C656.736,398.961,651.829,392.5,644.808,388.678Z" transform="translate(-438.984 -293.521)" fill="#fbbebe"/>
    <path id="Path_31" data-name="Path 31" d="M581.912,218.841c1.477-2.333,3.23-4.865,5.626-5.135,3.345-.379,5.959,3.8,9.288,4.344,4.285.7,8.5-4.786,12.524-2.782,1.978.989,3.454,3.731,5.6,3.678,1.487-.033,2.7-1.427,3.682-2.795a52.144,52.144,0,0,0,4.4-7.291c-4.09-4.69-10.039-5.761-15.593-6.615l-9.337-1.434a18.73,18.73,0,0,0-6.77-.211,18.483,18.483,0,0,0-5.735,2.663c-2.182,1.371-7.314,3.573-8.652,6.124-.933,1.77.349,2.594,1.552,4.377Q580.2,216.3,581.912,218.841Z" transform="translate(-403.457 -168.173)" fill="#2f2e41"/>
    <path id="Path_32" data-name="Path 32" d="M399.313,430.22A49.109,49.109,0,0,1,387,431.1a33.185,33.185,0,0,0-4.855-.1,39.8,39.8,0,0,0-5.709,1.3c-9.819,2.416-20.079.056-30.1-1.269a16.558,16.558,0,0,0-5.333-.092A15.164,15.164,0,0,0,336.5,432.8a54.463,54.463,0,0,0-6.592,4.413c-2.185,1.707-4.39,3.883-4.542,6.648-.132,2.38,1.318,4.571,3.075,6.19,4.746,4.393,11.793,5.715,18.147,4.525,2.416-.452,4.772-1.229,7.215-1.5,2.5-.277,5.03,0,7.544-.119,5.109-.227,10-2,14.96-3.24a72.059,72.059,0,0,1,23.711-1.859.511.511,0,0,1-.7-.359,14.562,14.562,0,0,1-.6-5.069C398.737,438.282,398.931,434.353,399.313,430.22Z" transform="translate(-235.001 -322.269)" opacity="0.1"/>
    <path id="Path_33" data-name="Path 33" d="M397.313,431.22A49.108,49.108,0,0,1,385,432.1a33.189,33.189,0,0,0-4.855-.1,39.8,39.8,0,0,0-5.709,1.3c-9.819,2.416-20.079.056-30.1-1.269a16.559,16.559,0,0,0-5.333-.092A15.163,15.163,0,0,0,334.5,433.8a54.461,54.461,0,0,0-6.592,4.413c-2.185,1.707-4.39,3.883-4.542,6.648-.132,2.38,1.318,4.571,3.075,6.19,4.746,4.393,11.793,5.715,18.147,4.525,2.416-.452,4.772-1.229,7.215-1.5,2.5-.277,5.03,0,7.544-.119,5.109-.227,10-2,14.96-3.24a72.06,72.06,0,0,1,23.711-1.859.511.511,0,0,1-.7-.359,14.562,14.562,0,0,1-.6-5.069C396.737,439.282,396.931,435.353,397.313,431.22Z" transform="translate(-233.661 -322.939)" fill="#354152"/>
    <path id="Path_34" data-name="Path 34" d="M730,424.338c5.023,1.144,17.112,1.648,22.261,1.477,2.35-.073,4.693-.283,7.043-.277,4.028,0,8.049.659,12.066.392,5.191-.356,10.29-2.264,15.468-1.773a33.814,33.814,0,0,1,7.419,1.865c2.426.811,5.069,1.727,6.776,3.7,1.582,1.826,2.159,4.285,2.683,6.645a9.892,9.892,0,0,1,.33,4c-.491,2.508-2.8,4.206-5.02,5.471-2.637,1.5-5.531,2.795-8.569,2.726a19.141,19.141,0,0,1-5.273-1.1c-4.921-1.546-9.95-3.3-15.092-2.91-3.6.277-7.188,1.6-10.725.887-2.08-.422-3.955-1.523-5.933-2.254-4.819-1.763-17.05-1.3-22.158-.808.3-2.871.26-5.765.557-8.639a15.525,15.525,0,0,0-.254-6.572A5.451,5.451,0,0,0,730,424.338Z" transform="translate(-506.279 -318.15)" opacity="0.1"/>
    <path id="Path_35" data-name="Path 35" d="M731,426.338c5.023,1.144,17.112,1.648,22.261,1.477,2.35-.072,4.693-.283,7.043-.277,4.028,0,8.049.659,12.066.392,5.191-.356,10.29-2.264,15.468-1.773a33.813,33.813,0,0,1,7.419,1.865c2.426.811,5.069,1.727,6.776,3.7,1.582,1.826,2.159,4.285,2.683,6.645a9.892,9.892,0,0,1,.33,4c-.491,2.508-2.8,4.206-5.02,5.471-2.637,1.5-5.531,2.795-8.569,2.726a19.141,19.141,0,0,1-5.273-1.1c-4.921-1.546-9.95-3.3-15.092-2.91-3.6.277-7.188,1.6-10.725.887-2.08-.422-3.955-1.523-5.933-2.254-4.819-1.763-17.05-1.3-22.158-.808.3-2.871.26-5.765.557-8.639a15.526,15.526,0,0,0-.254-6.572A5.452,5.452,0,0,0,731,426.338Z" transform="translate(-506.95 -319.491)" fill="#354152"/>
    <path id="Path_36" data-name="Path 36" d="M562.847,271.043c-.771-.2-1.068-1.177-1.763-1.569a1.7,1.7,0,0,0-2.067.5,3.566,3.566,0,0,0-.719,2.142,8.1,8.1,0,0,0,5.076,7.818,33.023,33.023,0,0,1-.791-9.156Z" transform="translate(-391.165 -214.386)" fill="#fbbebe"/>
    <path id="Path_37" data-name="Path 37" d="M718.6,271.043c.771-.2,1.065-1.177,1.76-1.569a1.7,1.7,0,0,1,2.067.5,3.544,3.544,0,0,1,.718,2.142,8.1,8.1,0,0,1-5.076,7.818,33.021,33.021,0,0,0,.791-9.156Z" transform="translate(-498.281 -214.386)" fill="#fbbebe"/>
    <g id="Group_38" data-name="Group 38" transform="translate(187.278 129.744)" opacity="0.1">
      <path id="Path_38" data-name="Path 38" d="M620.88,496.34a25.627,25.627,0,0,1,.906,7.053c0,4.143-.814,7.759-2.027,9.7-.1.923-.218,1.839-.33,2.739,1.711-1.318,2.966-5.649,2.966-10.791A22.75,22.75,0,0,0,620.88,496.34Z" transform="translate(-619.43 -496.34)"/>
    </g>
    <g id="Group_39" data-name="Group 39" transform="translate(196.497 129.744)" opacity="0.1">
      <path id="Path_39" data-name="Path 39" d="M648.916,496.34a25.622,25.622,0,0,0-.91,7.053c0,4.143.817,7.759,2.03,9.7.1.923.214,1.839.33,2.739-1.711-1.318-2.966-5.649-2.966-10.791A22.137,22.137,0,0,1,648.916,496.34Z" transform="translate(-647.4 -496.34)"/>
    </g>
    <path id="Path_40" data-name="Path 40" d="M618.529,230.576c-.989,1.368-2.2,2.762-3.682,2.795-2.152.053-3.625-2.683-5.6-3.678-4.011-2-8.213,3.48-12.525,2.782-3.329-.541-5.933-4.723-9.288-4.344-2.4.27-4.15,2.8-5.626,5.135q-1.714-2.535-3.424-5.076a22.042,22.042,0,0,1-1.694-2.429c-.639,1.569.56,2.4,1.694,4.077s2.281,3.385,3.424,5.076c1.477-2.333,3.23-4.865,5.626-5.135,3.345-.379,5.959,3.8,9.288,4.344,4.285.7,8.5-4.786,12.525-2.782,1.978.989,3.454,3.731,5.6,3.678,1.486-.033,2.7-1.427,3.682-2.795a52.144,52.144,0,0,0,4.4-7.291c-.178-.2-.362-.4-.55-.593a52.617,52.617,0,0,1-3.85,6.236Z" transform="translate(-403.377 -184.245)" opacity="0.1"/>
  </g>
</svg>
