<svg xmlns="http://www.w3.org/2000/svg" width="344" height="205.648" viewBox="0 0 344 205.648">
  <g id="undraw_Login_re_4vu2" transform="translate(0 0)">
    <path id="Path_41" data-name="Path 41" d="M821.17,603.515a17.776,17.776,0,0,1-6.378-15.323c.7-5.723,5.047-10.984,10.683-12.2s12.061,2.149,13.773,7.655c.942-10.615,2.028-21.675,7.672-30.715a32.528,32.528,0,0,1,23.554-15.09,29.185,29.185,0,0,1,25.675,10.481c5.982,7.571,7.447,18.578,3.257,27.271-3.087,6.4-8.773,11.169-14.731,15.046a95.076,95.076,0,0,1-65.025,14.225Z" transform="translate(-557.796 -400.176)" fill="#f2f2f2"/>
    <path id="Path_42" data-name="Path 42" d="M926.138,545.676a156.877,156.877,0,0,0-46.1,62.33c-.44,1.077,1.31,1.546,1.745.481a155.134,155.134,0,0,1,45.63-61.532c.9-.735-.384-2.009-1.279-1.279Z" transform="translate(-597.271 -404.881)" fill="#fff"/>
    <path id="Path_43" data-name="Path 43" d="M275.739,563.356c6.049-5.111,9.723-13.186,8.76-21.047s-6.932-15.087-14.673-16.756-16.566,2.951-18.918,10.514c-1.294-14.58-2.785-29.771-10.537-42.187-7.019-11.242-19.176-19.287-32.351-20.726s-27.047,4-35.264,14.4-10.229,25.517-4.474,37.456c4.239,8.795,12.05,15.34,20.234,20.665a130.585,130.585,0,0,0,89.312,19.539" transform="translate(-165 -361.029)" fill="#f2f2f2"/>
    <path id="Path_44" data-name="Path 44" d="M214.234,483.915a213.656,213.656,0,0,1,29.775,29.567,214.278,214.278,0,0,1,33.537,56.043c.6,1.48-1.8,2.124-2.4.661a212.075,212.075,0,0,0-19.378-36.664,212.889,212.889,0,0,0-43.295-47.849c-1.241-1.01.527-2.759,1.757-1.757Z" transform="translate(-193.449 -367.492)" fill="#fff"/>
    <path id="Path_45" data-name="Path 45" d="M568.822,395.145H424.5V247.067a57.2,57.2,0,0,1,57.136-57.136h30.051a57.2,57.2,0,0,1,57.136,57.136Z" transform="translate(-321.893 -189.931)" fill="#f2f2f2"/>
    <path id="Path_46" data-name="Path 46" d="M538.771,395.147H424.5V247.069a56.694,56.694,0,0,1,10.911-33.587c.263-.358.524-.711.794-1.06a57.123,57.123,0,0,1,12.16-11.8c.261-.19.523-.376.789-.563a57,57,0,0,1,12.444-6.508c.261-.1.527-.2.793-.293a56.947,56.947,0,0,1,12.3-2.9c.26-.036.527-.063.794-.091a57.843,57.843,0,0,1,12.3,0c.266.028.533.056.8.092a56.935,56.935,0,0,1,12.3,2.9c.266.1.532.194.794.294a56.858,56.858,0,0,1,12.3,6.412c.266.182.531.369.793.555a57.726,57.726,0,0,1,7.269,6.154,57.054,57.054,0,0,1,5.031,5.753c.269.348.531.7.793,1.058a56.693,56.693,0,0,1,10.912,33.588Z" transform="translate(-321.893 -189.933)" fill="#ccc"/>
    <circle id="Ellipse_5" data-name="Ellipse 5" cx="6.326" cy="6.326" r="6.326" transform="translate(201.26 126.331)" fill="#556aa1"/>
    <path id="Path_47" data-name="Path 47" d="M583.66,479.193h-4.848l-2.306-18.7h7.155Z" transform="translate(-348.554 -278.414)" fill="#ffb8b8"/>
    <path id="Path_48" data-name="Path 48" d="M564.581,504.28h9.349v5.886H558.7a5.886,5.886,0,0,1,5.886-5.886Z" transform="translate(-337.786 -304.886)" fill="#2f2e41"/>
    <path id="Path_49" data-name="Path 49" d="M644.66,479.193h-4.848l-2.306-18.7h7.155Z" transform="translate(-385.435 -278.414)" fill="#ffb8b8"/>
    <path id="Path_50" data-name="Path 50" d="M625.581,504.28h9.349v5.886H619.7A5.886,5.886,0,0,1,625.581,504.28Z" transform="translate(-374.666 -304.886)" fill="#2f2e41"/>
    <path id="Path_51" data-name="Path 51" d="M696.977,449.573a4.248,4.248,0,0,1,1.783-6.264l16.479-45.419,8.108,4.425-18.815,43.4a4.271,4.271,0,0,1-7.556,3.854Z" transform="translate(-486.189 -315.662)" fill="#ffb8b8"/>
    <path id="Path_52" data-name="Path 52" d="M804.782,466.915a4.248,4.248,0,0,1-1.144-6.412l-5.1-48.045,9.228.422,2.121,47.259a4.271,4.271,0,0,1-5.1,6.777Z" transform="translate(-548.033 -324.47)" fill="#ffb8b8"/>
    <circle id="Ellipse_6" data-name="Ellipse 6" cx="9.711" cy="9.711" r="9.711" transform="translate(232.316 54.392)" fill="#ffb8b8"/>
    <path id="Path_53" data-name="Path 53" d="M769.411,439.8H740.133l.035-.228c.053-.341,5.218-34.178,1.408-45.248a4.671,4.671,0,0,1,2.4-5.766h0c5.445-2.564,15.9-5.722,24.721,1.941a11.164,11.164,0,0,1,3.74,9.251Z" transform="translate(-512.724 -308.277)" fill="#354152"/>
    <path id="Path_54" data-name="Path 54" d="M734.2,415.355l-13.181-2.674,6.179-14.642a5.535,5.535,0,1,1,10.718,2.767Z" transform="translate(-501.167 -313.242)" fill="#354152"/>
    <path id="Path_55" data-name="Path 55" d="M795.672,421.887l-.792-18.165c-.6-3.415,1.354-6.643,4.36-7.171s5.944,1.843,6.547,5.283l2.979,16.974Z" transform="translate(-545.759 -314.809)" fill="#354152"/>
    <path id="Path_56" data-name="Path 56" d="M766.025,517.049c4.711,17.942,5.225,40.754,3.954,65.637l-6.326-.791-11.467-47.448-6.326,48.239-7.117-.4c-2.126-26.108-4.2-48.522-.791-63.264Z" transform="translate(-510.312 -387.706)" fill="#2f2e41"/>
    <path id="Path_57" data-name="Path 57" d="M765.676,337.866a3.137,3.137,0,0,1-5.412-1.743,3.187,3.187,0,0,1,0-.615c.122-1.168.8-2.228.635-3.461a1.814,1.814,0,0,0-.332-.85c-1.444-1.933-4.833.865-6.2-.885-.835-1.073.147-2.763-.495-3.962-.846-1.583-3.353-.8-4.924-1.669-1.749-.965-1.644-3.648-.493-5.28a8.3,8.3,0,0,1,6.3-3.205,16.889,16.889,0,0,1,7.114,1.388,14.218,14.218,0,0,1,6.722,4.661,11.379,11.379,0,0,1,1.15,9.688C769.159,333.894,767.156,336.29,765.676,337.866Z" transform="translate(-517.25 -266.256)" fill="#2f2e41"/>
    <path id="Path_58" data-name="Path 58" d="M557.889,708.134H265.966a.471.471,0,1,1,0-.942H557.889a.471.471,0,1,1,0,.942Z" transform="translate(-225.759 -502.666)" fill="#3f3d56"/>
    <path id="Path_59" data-name="Path 59" d="M551.472,417.238h-51.4a2.556,2.556,0,0,1-2.57-2.537V299.967a2.556,2.556,0,0,1,2.57-2.537h51.4a2.556,2.556,0,0,1,2.57,2.537V414.7A2.557,2.557,0,0,1,551.472,417.238Z" transform="translate(-366.029 -254.925)" fill="#fff"/>
    <rect id="Rectangle_39" data-name="Rectangle 39" width="56.542" height="0.791" transform="translate(131.471 79.63)" fill="#ccc"/>
    <rect id="Rectangle_40" data-name="Rectangle 40" width="56.542" height="0.791" transform="translate(131.669 124.75)" fill="#ccc"/>
    <rect id="Rectangle_41" data-name="Rectangle 41" width="0.791" height="120.202" transform="translate(149.264 42.506)" fill="#ccc"/>
    <rect id="Rectangle_42" data-name="Rectangle 42" width="0.791" height="120.202" transform="translate(169.034 42.506)" fill="#ccc"/>
  </g>
</svg>
